MeshVersionFormatted 2
Dimension 3

Vertices
804
0.0000000000000000e+00 0.0000000000000000e+00 2.0000000000000000e+01 0
0.0000000000000000e+00 0.0000000000000000e+00 -2.0000000000000000e+01 0
0.0000000000000000e+00 2.0000000000000001e-01 2.0000000000000000e+01 0
0.0000000000000000e+00 2.0000000000000001e-01 -2.0000000000000000e+01 0
2.0000000000000001e-01 0.0000000000000000e+00 2.0000000000000000e+01 0
2.0000000000000001e-01 0.0000000000000000e+00 -2.0000000000000000e+01 0
2.0000000000000001e-01 2.0000000000000001e-01 2.0000000000000000e+01 0
2.0000000000000001e-01 2.0000000000000001e-01 -2.0000000000000000e+01 0
0.0000000000000000e+00 0.0000000000000000e+00 -1.9800000000000001e+01 0
0.0000000000000000e+00 0.0000000000000000e+00 -1.9600000000000001e+01 0
0.0000000000000000e+00 0.0000000000000000e+00 -1.9399999999999999e+01 0
0.0000000000000000e+00 0.0000000000000000e+00 -1.9199999999999999e+01 0
0.0000000000000000e+00 0.0000000000000000e+00 -1.9000000000000000e+01 0
0.0000000000000000e+00 0.0000000000000000e+00 -1.8800000000000001e+01 0
0.0000000000000000e+00 0.0000000000000000e+00 -1.8600000000000001e+01 0
0.0000000000000000e+00 0.0000000000000000e+00 -1.8399999999999999e+01 0
0.0000000000000000e+00 0.0000000000000000e+00 -1.8199999999999999e+01 0
0.0000000000000000e+00 0.0000000000000000e+00 -1.8000000000000000e+01 0
0.0000000000000000e+00 0.0000000000000000e+00 -1.7800000000000001e+01 0
0.0000000000000000e+00 0.0000000000000000e+00 -1.7600000000000001e+01 0
0.0000000000000000e+00 0.0000000000000000e+00 -1.7399999999999999e+01 0
0.0000000000000000e+00 0.0000000000000000e+00 -1.7199999999999999e+01 0
0.0000000000000000e+00 0.0000000000000000e+00 -1.7000000000000000e+01 0
0.0000000000000000e+00 0.0000000000000000e+00 -1.6800000000000001e+01 0
0.0000000000000000e+00 0.0000000000000000e+00 -1.6599999999999998e+01 0
0.0000000000000000e+00 0.0000000000000000e+00 -1.6399999999999999e+01 0
0.0000000000000000e+00 0.0000000000000000e+00 -1.6199999999999999e+01 0
0.0000000000000000e+00 0.0000000000000000e+00 -1.6000000000000000e+01 0
0.0000000000000000e+00 0.0000000000000000e+00 -1.5799999999999999e+01 0
0.0000000000000000e+00 0.0000000000000000e+00 -1.5599999999999998e+01 0
0.0000000000000000e+00 0.0000000000000000e+00 -1.5399999999999999e+01 0
0.0000000000000000e+00 0.0000000000000000e+00 -1.5199999999999999e+01 0
0.0000000000000000e+00 0.0000000000000000e+00 -1.4999999999999998e+01 0
0.0000000000000000e+00 0.0000000000000000e+00 -1.4799999999999997e+01 0
0.0000000000000000e+00 0.0000000000000000e+00 -1.4599999999999998e+01 0
0.0000000000000000e+00 0.0000000000000000e+00 -1.4399999999999999e+01 0
0.0000000000000000e+00 0.0000000000000000e+00 -1.4199999999999998e+01 0
0.0000000000000000e+00 0.0000000000000000e+00 -1.3999999999999996e+01 0
0.0000000000000000e+00 0.0000000000000000e+00 -1.3799999999999997e+01 0
0.0000000000000000e+00 0.0000000000000000e+00 -1.3599999999999998e+01 0
0.0000000000000000e+00 0.0000000000000000e+00 -1.3399999999999997e+01 0
0.0000000000000000e+00 0.0000000000000000e+00 -1.3199999999999996e+01 0
0.0000000000000000e+00 0.0000000000000000e+00 -1.2999999999999996e+01 0
0.0000000000000000e+00 0.0000000000000000e+00 -1.2799999999999997e+01 0
0.0000000000000000e+00 0.0000000000000000e+00 -1.2599999999999996e+01 0
0.0000000000000000e+00 0.0000000000000000e+00 -1.2399999999999995e+01 0
0.0000000000000000e+00 0.0000000000000000e+00 -1.2199999999999996e+01 0
0.0000000000000000e+00 0.0000000000000000e+00 -1.1999999999999996e+01 0
0.0000000000000000e+00 0.0000000000000000e+00 -1.1799999999999997e+01 0
0.0000000000000000e+00 0.0000000000000000e+00 -1.1599999999999998e+01 0
0.0000000000000000e+00 0.0000000000000000e+00 -1.1399999999999999e+01 0
0.0000000000000000e+00 0.0000000000000000e+00 -1.1199999999999999e+01 0
0.0000000000000000e+00 0.0000000000000000e+00 -1.1000000000000000e+01 0
0.0000000000000000e+00 0.0000000000000000e+00 -1.0800000000000001e+01 0
0.0000000000000000e+00 0.0000000000000000e+00 -1.0600000000000001e+01 0
0.0000000000000000e+00 0.0000000000000000e+00 -1.0400000000000002e+01 0
0.0000000000000000e+00 0.0000000000000000e+00 -1.0200000000000003e+01 0
0.0000000000000000e+00 0.0000000000000000e+00 -1.0000000000000004e+01 0
0.0000000000000000e+00 0.0000000000000000e+00 -9.8000000000000043e+00 0
0.0000000000000000e+00 0.0000000000000000e+00 -9.6000000000000050e+00 0
0.0000000000000000e+00 0.0000000000000000e+00 -9.4000000000000057e+00 0
0.0000000000000000e+00 0.0000000000000000e+00 -9.2000000000000064e+00 0
0.0000000000000000e+00 0.0000000000000000e+00 -9.0000000000000071e+00 0
0.0000000000000000e+00 0.0000000000000000e+00 -8.8000000000000078e+00 0
0.0000000000000000e+00 0.0000000000000000e+00 -8.6000000000000085e+00 0
0.0000000000000000e+00 0.0000000000000000e+00 -8.4000000000000092e+00 0
0.0000000000000000e+00 0.0000000000000000e+00 -8.2000000000000099e+00 0
0.0000000000000000e+00 0.0000000000000000e+00 -8.0000000000000107e+00 0
0.0000000000000000e+00 0.0000000000000000e+00 -7.8000000000000114e+00 0
0.0000000000000000e+00 0.0000000000000000e+00 -7.6000000000000121e+00 0
0.0000000000000000e+00 0.0000000000000000e+00 -7.4000000000000128e+00 0
0.0000000000000000e+00 0.0000000000000000e+00 -7.2000000000000135e+00 0
0.0000000000000000e+00 0.0000000000000000e+00 -7.0000000000000142e+00 0
0.0000000000000000e+00 0.0000000000000000e+00 -6.8000000000000149e+00 0
0.0000000000000000e+00 0.0000000000000000e+00 -6.6000000000000156e+00 0
0.0000000000000000e+00 0.0000000000000000e+00 -6.4000000000000163e+00 0
0.0000000000000000e+00 0.0000000000000000e+00 -6.2000000000000171e+00 0
0.0000000000000000e+00 0.0000000000000000e+00 -6.0000000000000178e+00 0
0.0000000000000000e+00 0.0000000000000000e+00 -5.8000000000000185e+00 0
0.0000000000000000e+00 0.0000000000000000e+00 -5.6000000000000192e+00 0
0.0000000000000000e+00 0.0000000000000000e+00 -5.4000000000000199e+00 0
0.0000000000000000e+00 0.0000000000000000e+00 -5.2000000000000206e+00 0
0.0000000000000000e+00 0.0000000000000000e+00 -5.0000000000000213e+00 0
0.0000000000000000e+00 0.0000000000000000e+00 -4.8000000000000220e+00 0
0.0000000000000000e+00 0.0000000000000000e+00 -4.6000000000000227e+00 0
0.0000000000000000e+00 0.0000000000000000e+00 -4.4000000000000234e+00 0
0.0000000000000000e+00 0.0000000000000000e+00 -4.2000000000000242e+00 0
0.0000000000000000e+00 0.0000000000000000e+00 -4.0000000000000249e+00 0
0.0000000000000000e+00 0.0000000000000000e+00 -3.8000000000000256e+00 0
0.0000000000000000e+00 0.0000000000000000e+00 -3.6000000000000263e+00 0
0.0000000000000000e+00 0.0000000000000000e+00 -3.4000000000000270e+00 0
0.0000000000000000e+00 0.0000000000000000e+00 -3.2000000000000277e+00 0
0.0000000000000000e+00 0.0000000000000000e+00 -3.0000000000000284e+00 0
0.0000000000000000e+00 0.0000000000000000e+00 -2.8000000000000291e+00 0
0.0000000000000000e+00 0.0000000000000000e+00 -2.6000000000000298e+00 0
0.0000000000000000e+00 0.0000000000000000e+00 -2.4000000000000306e+00 0
0.0000000000000000e+00 0.0000000000000000e+00 -2.2000000000000313e+00 0
0.0000000000000000e+00 0.0000000000000000e+00 -2.0000000000000320e+00 0
0.0000000000000000e+00 0.0000000000000000e+00 -1.8000000000000327e+00 0
0.0000000000000000e+00 0.0000000000000000e+00 -1.6000000000000334e+00 0
0.0000000000000000e+00 0.0000000000000000e+00 -1.4000000000000341e+00 0
0.0000000000000000e+00 0.0000000000000000e+00 -1.2000000000000348e+00 0
0.0000000000000000e+00 0.0000000000000000e+00 -1.0000000000000355e+00 0
0.0000000000000000e+00 0.0000000000000000e+00 -8.0000000000003624e-01 0
0.0000000000000000e+00 0.0000000000000000e+00 -6.0000000000003695e-01 0
0.0000000000000000e+00 0.0000000000000000e+00 -4.0000000000003766e-01 0
0.0000000000000000e+00 0.0000000000000000e+00 -2.0000000000003837e-01 0
0.0000000000000000e+00 0.0000000000000000e+00 -3.9079850466805510e-14 0
0.0000000000000000e+00 0.0000000000000000e+00 1.9999999999996021e-01 0
0.0000000000000000e+00 0.0000000000000000e+00 3.9999999999995950e-01 0
0.0000000000000000e+00 0.0000000000000000e+00 5.9999999999995879e-01 0
0.0000000000000000e+00 0.0000000000000000e+00 7.9999999999995808e-01 0
0.0000000000000000e+00 0.0000000000000000e+00 9.9999999999995737e-01 0
0.0000000000000000e+00 0.0000000000000000e+00 1.1999999999999567e+00 0
0.0000000000000000e+00 0.0000000000000000e+00 1.3999999999999559e+00 0
0.0000000000000000e+00 0.0000000000000000e+00 1.5999999999999552e+00 0
0.0000000000000000e+00 0.0000000000000000e+00 1.7999999999999545e+00 0
0.0000000000000000e+00 0.0000000000000000e+00 1.9999999999999538e+00 0
0.0000000000000000e+00 0.0000000000000000e+00 2.1999999999999531e+00 0
0.0000000000000000e+00 0.0000000000000000e+00 2.3999999999999524e+00 0
0.0000000000000000e+00 0.0000000000000000e+00 2.5999999999999517e+00 0
0.0000000000000000e+00 0.0000000000000000e+00 2.7999999999999510e+00 0
0.0000000000000000e+00 0.0000000000000000e+00 2.9999999999999503e+00 0
0.0000000000000000e+00 0.0000000000000000e+00 3.1999999999999496e+00 0
0.0000000000000000e+00 0.0000000000000000e+00 3.3999999999999488e+00 0
0.0000000000000000e+00 0.0000000000000000e+00 3.5999999999999481e+00 0
0.0000000000000000e+00 0.0000000000000000e+00 3.7999999999999474e+00 0
0.0000000000000000e+00 0.0000000000000000e+00 3.9999999999999467e+00 0
0.0000000000000000e+00 0.0000000000000000e+00 4.1999999999999460e+00 0
0.0000000000000000e+00 0.0000000000000000e+00 4.3999999999999453e+00 0
0.0000000000000000e+00 0.0000000000000000e+00 4.5999999999999446e+00 0
0.0000000000000000e+00 0.0000000000000000e+00 4.7999999999999439e+00 0
0.0000000000000000e+00 0.0000000000000000e+00 4.9999999999999432e+00 0
0.0000000000000000e+00 0.0000000000000000e+00 5.1999999999999424e+00 0
0.0000000000000000e+00 0.0000000000000000e+00 5.3999999999999417e+00 0
0.0000000000000000e+00 0.0000000000000000e+00 5.5999999999999410e+00 0
0.0000000000000000e+00 0.0000000000000000e+00 5.7999999999999403e+00 0
0.0000000000000000e+00 0.0000000000000000e+00 5.9999999999999396e+00 0
0.0000000000000000e+00 0.0000000000000000e+00 6.1999999999999389e+00 0
0.0000000000000000e+00 0.0000000000000000e+00 6.3999999999999382e+00 0
0.0000000000000000e+00 0.0000000000000000e+00 6.5999999999999375e+00 0
0.0000000000000000e+00 0.0000000000000000e+00 6.7999999999999368e+00 0
0.0000000000000000e+00 0.0000000000000000e+00 6.9999999999999361e+00 0
0.0000000000000000e+00 0.0000000000000000e+00 7.1999999999999353e+00 0
0.0000000000000000e+00 0.0000000000000000e+00 7.3999999999999346e+00 0
0.0000000000000000e+00 0.0000000000000000e+00 7.5999999999999339e+00 0
0.0000000000000000e+00 0.0000000000000000e+00 7.7999999999999332e+00 0
0.0000000000000000e+00 0.0000000000000000e+00 7.9999999999999325e+00 0
0.0000000000000000e+00 0.0000000000000000e+00 8.1999999999999318e+00 0
0.0000000000000000e+00 0.0000000000000000e+00 8.3999999999999311e+00 0
0.0000000000000000e+00 0.0000000000000000e+00 8.5999999999999304e+00 0
0.0000000000000000e+00 0.0000000000000000e+00 8.7999999999999297e+00 0
0.0000000000000000e+00 0.0000000000000000e+00 8.9999999999999289e+00 0
0.0000000000000000e+00 0.0000000000000000e+00 9.1999999999999282e+00 0
0.0000000000000000e+00 0.0000000000000000e+00 9.3999999999999275e+00 0
0.0000000000000000e+00 0.0000000000000000e+00 9.5999999999999268e+00 0
0.0000000000000000e+00 0.0000000000000000e+00 9.7999999999999261e+00 0
0.0000000000000000e+00 0.0000000000000000e+00 9.9999999999999254e+00 0
0.0000000000000000e+00 0.0000000000000000e+00 1.0199999999999925e+01 0
0.0000000000000000e+00 0.0000000000000000e+00 1.0399999999999924e+01 0
0.0000000000000000e+00 0.0000000000000000e+00 1.0599999999999923e+01 0
0.0000000000000000e+00 0.0000000000000000e+00 1.0799999999999923e+01 0
0.0000000000000000e+00 0.0000000000000000e+00 1.0999999999999922e+01 0
0.0000000000000000e+00 0.0000000000000000e+00 1.1199999999999921e+01 0
0.0000000000000000e+00 0.0000000000000000e+00 1.1399999999999920e+01 0
0.0000000000000000e+00 0.0000000000000000e+00 1.1599999999999920e+01 0
0.0000000000000000e+00 0.0000000000000000e+00 1.1799999999999919e+01 0
0.0000000000000000e+00 0.0000000000000000e+00 1.1999999999999918e+01 0
0.0000000000000000e+00 0.0000000000000000e+00 1.2199999999999918e+01 0
0.0000000000000000e+00 0.0000000000000000e+00 1.2399999999999920e+01 0
0.0000000000000000e+00 0.0000000000000000e+00 1.2599999999999923e+01 0
0.0000000000000000e+00 0.0000000000000000e+00 1.2799999999999926e+01 0
0.0000000000000000e+00 0.0000000000000000e+00 1.2999999999999929e+01 0
0.0000000000000000e+00 0.0000000000000000e+00 1.3199999999999932e+01 0
0.0000000000000000e+00 0.0000000000000000e+00 1.3399999999999935e+01 0
0.0000000000000000e+00 0.0000000000000000e+00 1.3599999999999937e+01 0
0.0000000000000000e+00 0.0000000000000000e+00 1.3799999999999940e+01 0
0.0000000000000000e+00 0.0000000000000000e+00 1.3999999999999943e+01 0
0.0000000000000000e+00 0.0000000000000000e+00 1.4199999999999946e+01 0
0.0000000000000000e+00 0.0000000000000000e+00 1.4399999999999949e+01 0
0.0000000000000000e+00 0.0000000000000000e+00 1.4599999999999952e+01 0
0.0000000000000000e+00 0.0000000000000000e+00 1.4799999999999955e+01 0
0.0000000000000000e+00 0.0000000000000000e+00 1.4999999999999957e+01 0
0.0000000000000000e+00 0.0000000000000000e+00 1.5199999999999960e+01 0
0.0000000000000000e+00 0.0000000000000000e+00 1.5399999999999963e+01 0
0.0000000000000000e+00 0.0000000000000000e+00 1.5599999999999966e+01 0
0.0000000000000000e+00 0.0000000000000000e+00 1.5799999999999969e+01 0
0.0000000000000000e+00 0.0000000000000000e+00 1.5999999999999972e+01 0
0.0000000000000000e+00 0.0000000000000000e+00 1.6199999999999974e+01 0
0.0000000000000000e+00 0.0000000000000000e+00 1.6399999999999977e+01 0
0.0000000000000000e+00 0.0000000000000000e+00 1.6599999999999980e+01 0
0.0000000000000000e+00 0.0000000000000000e+00 1.6799999999999983e+01 0
0.0000000000000000e+00 0.0000000000000000e+00 1.6999999999999986e+01 0
0.0000000000000000e+00 0.0000000000000000e+00 1.7199999999999989e+01 0
0.0000000000000000e+00 0.0000000000000000e+00 1.7399999999999991e+01 0
0.0000000000000000e+00 0.0000000000000000e+00 1.7599999999999994e+01 0
0.0000000000000000e+00 0.0000000000000000e+00 1.7799999999999997e+01 0
0.0000000000000000e+00 0.0000000000000000e+00 1.8000000000000000e+01 0
0.0000000000000000e+00 0.0000000000000000e+00 1.8200000000000003e+01 0
0.0000000000000000e+00 0.0000000000000000e+00 1.8400000000000006e+01 0
0.0000000000000000e+00 0.0000000000000000e+00 1.8600000000000009e+01 0
0.0000000000000000e+00 0.0000000000000000e+00 1.8800000000000011e+01 0
0.0000000000000000e+00 0.0000000000000000e+00 1.9000000000000014e+01 0
0.0000000000000000e+00 0.0000000000000000e+00 1.9200000000000017e+01 0
0.0000000000000000e+00 0.0000000000000000e+00 1.9400000000000020e+01 0
0.0000000000000000e+00 0.0000000000000000e+00 1.9600000000000023e+01 0
0.0000000000000000e+00 0.0000000000000000e+00 1.9800000000000026e+01 0
0.0000000000000000e+00 2.0000000000000001e-01 -1.9800000000000001e+01 0
0.0000000000000000e+00 2.0000000000000001e-01 -1.9600000000000001e+01 0
0.0000000000000000e+00 2.0000000000000001e-01 -1.9399999999999999e+01 0
0.0000000000000000e+00 2.0000000000000001e-01 -1.9199999999999999e+01 0
0.0000000000000000e+00 2.0000000000000001e-01 -1.9000000000000000e+01 0
0.0000000000000000e+00 2.0000000000000001e-01 -1.8800000000000001e+01 0
0.0000000000000000e+00 2.0000000000000001e-01 -1.8600000000000001e+01 0
0.0000000000000000e+00 2.0000000000000001e-01 -1.8399999999999999e+01 0
0.0000000000000000e+00 2.0000000000000001e-01 -1.8199999999999999e+01 0
0.0000000000000000e+00 2.0000000000000001e-01 -1.8000000000000000e+01 0
0.0000000000000000e+00 2.0000000000000001e-01 -1.7800000000000001e+01 0
0.0000000000000000e+00 2.0000000000000001e-01 -1.7600000000000001e+01 0
0.0000000000000000e+00 2.0000000000000001e-01 -1.7399999999999999e+01 0
0.0000000000000000e+00 2.0000000000000001e-01 -1.7199999999999999e+01 0
0.0000000000000000e+00 2.0000000000000001e-01 -1.7000000000000000e+01 0
0.0000000000000000e+00 2.0000000000000001e-01 -1.6800000000000001e+01 0
0.0000000000000000e+00 2.0000000000000001e-01 -1.6599999999999998e+01 0
0.0000000000000000e+00 2.0000000000000001e-01 -1.6399999999999999e+01 0
0.0000000000000000e+00 2.0000000000000001e-01 -1.6199999999999999e+01 0
0.0000000000000000e+00 2.0000000000000001e-01 -1.6000000000000000e+01 0
0.0000000000000000e+00 2.0000000000000001e-01 -1.5799999999999999e+01 0
0.0000000000000000e+00 2.0000000000000001e-01 -1.5599999999999998e+01 0
0.0000000000000000e+00 2.0000000000000001e-01 -1.5399999999999999e+01 0
0.0000000000000000e+00 2.0000000000000001e-01 -1.5199999999999999e+01 0
0.0000000000000000e+00 2.0000000000000001e-01 -1.4999999999999998e+01 0
0.0000000000000000e+00 2.0000000000000001e-01 -1.4799999999999997e+01 0
0.0000000000000000e+00 2.0000000000000001e-01 -1.4599999999999998e+01 0
0.0000000000000000e+00 2.0000000000000001e-01 -1.4399999999999999e+01 0
0.0000000000000000e+00 2.0000000000000001e-01 -1.4199999999999998e+01 0
0.0000000000000000e+00 2.0000000000000001e-01 -1.3999999999999996e+01 0
0.0000000000000000e+00 2.0000000000000001e-01 -1.3799999999999997e+01 0
0.0000000000000000e+00 2.0000000000000001e-01 -1.3599999999999998e+01 0
0.0000000000000000e+00 2.0000000000000001e-01 -1.3399999999999997e+01 0
0.0000000000000000e+00 2.0000000000000001e-01 -1.3199999999999996e+01 0
0.0000000000000000e+00 2.0000000000000001e-01 -1.2999999999999996e+01 0
0.0000000000000000e+00 2.0000000000000001e-01 -1.2799999999999997e+01 0
0.0000000000000000e+00 2.0000000000000001e-01 -1.2599999999999996e+01 0
0.0000000000000000e+00 2.0000000000000001e-01 -1.2399999999999995e+01 0
0.0000000000000000e+00 2.0000000000000001e-01 -1.2199999999999996e+01 0
0.0000000000000000e+00 2.0000000000000001e-01 -1.1999999999999996e+01 0
0.0000000000000000e+00 2.0000000000000001e-01 -1.1799999999999997e+01 0
0.0000000000000000e+00 2.0000000000000001e-01 -1.1599999999999998e+01 0
0.0000000000000000e+00 2.0000000000000001e-01 -1.1399999999999999e+01 0
0.0000000000000000e+00 2.0000000000000001e-01 -1.1199999999999999e+01 0
0.0000000000000000e+00 2.0000000000000001e-01 -1.1000000000000000e+01 0
0.0000000000000000e+00 2.0000000000000001e-01 -1.0800000000000001e+01 0
0.0000000000000000e+00 2.0000000000000001e-01 -1.0600000000000001e+01 0
0.0000000000000000e+00 2.0000000000000001e-01 -1.0400000000000002e+01 0
0.0000000000000000e+00 2.0000000000000001e-01 -1.0200000000000003e+01 0
0.0000000000000000e+00 2.0000000000000001e-01 -1.0000000000000004e+01 0
0.0000000000000000e+00 2.0000000000000001e-01 -9.8000000000000043e+00 0
0.0000000000000000e+00 2.0000000000000001e-01 -9.6000000000000050e+00 0
0.0000000000000000e+00 2.0000000000000001e-01 -9.4000000000000057e+00 0
0.0000000000000000e+00 2.0000000000000001e-01 -9.2000000000000064e+00 0
0.0000000000000000e+00 2.0000000000000001e-01 -9.0000000000000071e+00 0
0.0000000000000000e+00 2.0000000000000001e-01 -8.8000000000000078e+00 0
0.0000000000000000e+00 2.0000000000000001e-01 -8.6000000000000085e+00 0
0.0000000000000000e+00 2.0000000000000001e-01 -8.4000000000000092e+00 0
0.0000000000000000e+00 2.0000000000000001e-01 -8.2000000000000099e+00 0
0.0000000000000000e+00 2.0000000000000001e-01 -8.0000000000000107e+00 0
0.0000000000000000e+00 2.0000000000000001e-01 -7.8000000000000114e+00 0
0.0000000000000000e+00 2.0000000000000001e-01 -7.6000000000000121e+00 0
0.0000000000000000e+00 2.0000000000000001e-01 -7.4000000000000128e+00 0
0.0000000000000000e+00 2.0000000000000001e-01 -7.2000000000000135e+00 0
0.0000000000000000e+00 2.0000000000000001e-01 -7.0000000000000142e+00 0
0.0000000000000000e+00 2.0000000000000001e-01 -6.8000000000000149e+00 0
0.0000000000000000e+00 2.0000000000000001e-01 -6.6000000000000156e+00 0
0.0000000000000000e+00 2.0000000000000001e-01 -6.4000000000000163e+00 0
0.0000000000000000e+00 2.0000000000000001e-01 -6.2000000000000171e+00 0
0.0000000000000000e+00 2.0000000000000001e-01 -6.0000000000000178e+00 0
0.0000000000000000e+00 2.0000000000000001e-01 -5.8000000000000185e+00 0
0.0000000000000000e+00 2.0000000000000001e-01 -5.6000000000000192e+00 0
0.0000000000000000e+00 2.0000000000000001e-01 -5.4000000000000199e+00 0
0.0000000000000000e+00 2.0000000000000001e-01 -5.2000000000000206e+00 0
0.0000000000000000e+00 2.0000000000000001e-01 -5.0000000000000213e+00 0
0.0000000000000000e+00 2.0000000000000001e-01 -4.8000000000000220e+00 0
0.0000000000000000e+00 2.0000000000000001e-01 -4.6000000000000227e+00 0
0.0000000000000000e+00 2.0000000000000001e-01 -4.4000000000000234e+00 0
0.0000000000000000e+00 2.0000000000000001e-01 -4.2000000000000242e+00 0
0.0000000000000000e+00 2.0000000000000001e-01 -4.0000000000000249e+00 0
0.0000000000000000e+00 2.0000000000000001e-01 -3.8000000000000256e+00 0
0.0000000000000000e+00 2.0000000000000001e-01 -3.6000000000000263e+00 0
0.0000000000000000e+00 2.0000000000000001e-01 -3.4000000000000270e+00 0
0.0000000000000000e+00 2.0000000000000001e-01 -3.2000000000000277e+00 0
0.0000000000000000e+00 2.0000000000000001e-01 -3.0000000000000284e+00 0
0.0000000000000000e+00 2.0000000000000001e-01 -2.8000000000000291e+00 0
0.0000000000000000e+00 2.0000000000000001e-01 -2.6000000000000298e+00 0
0.0000000000000000e+00 2.0000000000000001e-01 -2.4000000000000306e+00 0
0.0000000000000000e+00 2.0000000000000001e-01 -2.2000000000000313e+00 0
0.0000000000000000e+00 2.0000000000000001e-01 -2.0000000000000320e+00 0
0.0000000000000000e+00 2.0000000000000001e-01 -1.8000000000000327e+00 0
0.0000000000000000e+00 2.0000000000000001e-01 -1.6000000000000334e+00 0
0.0000000000000000e+00 2.0000000000000001e-01 -1.4000000000000341e+00 0
0.0000000000000000e+00 2.0000000000000001e-01 -1.2000000000000348e+00 0
0.0000000000000000e+00 2.0000000000000001e-01 -1.0000000000000355e+00 0
0.0000000000000000e+00 2.0000000000000001e-01 -8.0000000000003624e-01 0
0.0000000000000000e+00 2.0000000000000001e-01 -6.0000000000003695e-01 0
0.0000000000000000e+00 2.0000000000000001e-01 -4.0000000000003766e-01 0
0.0000000000000000e+00 2.0000000000000001e-01 -2.0000000000003837e-01 0
0.0000000000000000e+00 2.0000000000000001e-01 -3.9079850466805510e-14 0
0.0000000000000000e+00 2.0000000000000001e-01 1.9999999999996021e-01 0
0.0000000000000000e+00 2.0000000000000001e-01 3.9999999999995950e-01 0
0.0000000000000000e+00 2.0000000000000001e-01 5.9999999999995879e-01 0
0.0000000000000000e+00 2.0000000000000001e-01 7.9999999999995808e-01 0
0.0000000000000000e+00 2.0000000000000001e-01 9.9999999999995737e-01 0
0.0000000000000000e+00 2.0000000000000001e-01 1.1999999999999567e+00 0
0.0000000000000000e+00 2.0000000000000001e-01 1.3999999999999559e+00 0
0.0000000000000000e+00 2.0000000000000001e-01 1.5999999999999552e+00 0
0.0000000000000000e+00 2.0000000000000001e-01 1.7999999999999545e+00 0
0.0000000000000000e+00 2.0000000000000001e-01 1.9999999999999538e+00 0
0.0000000000000000e+00 2.0000000000000001e-01 2.1999999999999531e+00 0
0.0000000000000000e+00 2.0000000000000001e-01 2.3999999999999524e+00 0
0.0000000000000000e+00 2.0000000000000001e-01 2.5999999999999517e+00 0
0.0000000000000000e+00 2.0000000000000001e-01 2.7999999999999510e+00 0
0.0000000000000000e+00 2.0000000000000001e-01 2.9999999999999503e+00 0
0.0000000000000000e+00 2.0000000000000001e-01 3.1999999999999496e+00 0
0.0000000000000000e+00 2.0000000000000001e-01 3.3999999999999488e+00 0
0.0000000000000000e+00 2.0000000000000001e-01 3.5999999999999481e+00 0
0.0000000000000000e+00 2.0000000000000001e-01 3.7999999999999474e+00 0
0.0000000000000000e+00 2.0000000000000001e-01 3.9999999999999467e+00 0
0.0000000000000000e+00 2.0000000000000001e-01 4.1999999999999460e+00 0
0.0000000000000000e+00 2.0000000000000001e-01 4.3999999999999453e+00 0
0.0000000000000000e+00 2.0000000000000001e-01 4.5999999999999446e+00 0
0.0000000000000000e+00 2.0000000000000001e-01 4.7999999999999439e+00 0
0.0000000000000000e+00 2.0000000000000001e-01 4.9999999999999432e+00 0
0.0000000000000000e+00 2.0000000000000001e-01 5.1999999999999424e+00 0
0.0000000000000000e+00 2.0000000000000001e-01 5.3999999999999417e+00 0
0.0000000000000000e+00 2.0000000000000001e-01 5.5999999999999410e+00 0
0.0000000000000000e+00 2.0000000000000001e-01 5.7999999999999403e+00 0
0.0000000000000000e+00 2.0000000000000001e-01 5.9999999999999396e+00 0
0.0000000000000000e+00 2.0000000000000001e-01 6.1999999999999389e+00 0
0.0000000000000000e+00 2.0000000000000001e-01 6.3999999999999382e+00 0
0.0000000000000000e+00 2.0000000000000001e-01 6.5999999999999375e+00 0
0.0000000000000000e+00 2.0000000000000001e-01 6.7999999999999368e+00 0
0.0000000000000000e+00 2.0000000000000001e-01 6.9999999999999361e+00 0
0.0000000000000000e+00 2.0000000000000001e-01 7.1999999999999353e+00 0
0.0000000000000000e+00 2.0000000000000001e-01 7.3999999999999346e+00 0
0.0000000000000000e+00 2.0000000000000001e-01 7.5999999999999339e+00 0
0.0000000000000000e+00 2.0000000000000001e-01 7.7999999999999332e+00 0
0.0000000000000000e+00 2.0000000000000001e-01 7.9999999999999325e+00 0
0.0000000000000000e+00 2.0000000000000001e-01 8.1999999999999318e+00 0
0.0000000000000000e+00 2.0000000000000001e-01 8.3999999999999311e+00 0
0.0000000000000000e+00 2.0000000000000001e-01 8.5999999999999304e+00 0
0.0000000000000000e+00 2.0000000000000001e-01 8.7999999999999297e+00 0
0.0000000000000000e+00 2.0000000000000001e-01 8.9999999999999289e+00 0
0.0000000000000000e+00 2.0000000000000001e-01 9.1999999999999282e+00 0
0.0000000000000000e+00 2.0000000000000001e-01 9.3999999999999275e+00 0
0.0000000000000000e+00 2.0000000000000001e-01 9.5999999999999268e+00 0
0.0000000000000000e+00 2.0000000000000001e-01 9.7999999999999261e+00 0
0.0000000000000000e+00 2.0000000000000001e-01 9.9999999999999254e+00 0
0.0000000000000000e+00 2.0000000000000001e-01 1.0199999999999925e+01 0
0.0000000000000000e+00 2.0000000000000001e-01 1.0399999999999924e+01 0
0.0000000000000000e+00 2.0000000000000001e-01 1.0599999999999923e+01 0
0.0000000000000000e+00 2.0000000000000001e-01 1.0799999999999923e+01 0
0.0000000000000000e+00 2.0000000000000001e-01 1.0999999999999922e+01 0
0.0000000000000000e+00 2.0000000000000001e-01 1.1199999999999921e+01 0
0.0000000000000000e+00 2.0000000000000001e-01 1.1399999999999920e+01 0
0.0000000000000000e+00 2.0000000000000001e-01 1.1599999999999920e+01 0
0.0000000000000000e+00 2.0000000000000001e-01 1.1799999999999919e+01 0
0.0000000000000000e+00 2.0000000000000001e-01 1.1999999999999918e+01 0
0.0000000000000000e+00 2.0000000000000001e-01 1.2199999999999918e+01 0
0.0000000000000000e+00 2.0000000000000001e-01 1.2399999999999920e+01 0
0.0000000000000000e+00 2.0000000000000001e-01 1.2599999999999923e+01 0
0.0000000000000000e+00 2.0000000000000001e-01 1.2799999999999926e+01 0
0.0000000000000000e+00 2.0000000000000001e-01 1.2999999999999929e+01 0
0.0000000000000000e+00 2.0000000000000001e-01 1.3199999999999932e+01 0
0.0000000000000000e+00 2.0000000000000001e-01 1.3399999999999935e+01 0
0.0000000000000000e+00 2.0000000000000001e-01 1.3599999999999937e+01 0
0.0000000000000000e+00 2.0000000000000001e-01 1.3799999999999940e+01 0
0.0000000000000000e+00 2.0000000000000001e-01 1.3999999999999943e+01 0
0.0000000000000000e+00 2.0000000000000001e-01 1.4199999999999946e+01 0
0.0000000000000000e+00 2.0000000000000001e-01 1.4399999999999949e+01 0
0.0000000000000000e+00 2.0000000000000001e-01 1.4599999999999952e+01 0
0.0000000000000000e+00 2.0000000000000001e-01 1.4799999999999955e+01 0
0.0000000000000000e+00 2.0000000000000001e-01 1.4999999999999957e+01 0
0.0000000000000000e+00 2.0000000000000001e-01 1.5199999999999960e+01 0
0.0000000000000000e+00 2.0000000000000001e-01 1.5399999999999963e+01 0
0.0000000000000000e+00 2.0000000000000001e-01 1.5599999999999966e+01 0
0.0000000000000000e+00 2.0000000000000001e-01 1.5799999999999969e+01 0
0.0000000000000000e+00 2.0000000000000001e-01 1.5999999999999972e+01 0
0.0000000000000000e+00 2.0000000000000001e-01 1.6199999999999974e+01 0
0.0000000000000000e+00 2.0000000000000001e-01 1.6399999999999977e+01 0
0.0000000000000000e+00 2.0000000000000001e-01 1.6599999999999980e+01 0
0.0000000000000000e+00 2.0000000000000001e-01 1.6799999999999983e+01 0
0.0000000000000000e+00 2.0000000000000001e-01 1.6999999999999986e+01 0
0.0000000000000000e+00 2.0000000000000001e-01 1.7199999999999989e+01 0
0.0000000000000000e+00 2.0000000000000001e-01 1.7399999999999991e+01 0
0.0000000000000000e+00 2.0000000000000001e-01 1.7599999999999994e+01 0
0.0000000000000000e+00 2.0000000000000001e-01 1.7799999999999997e+01 0
0.0000000000000000e+00 2.0000000000000001e-01 1.8000000000000000e+01 0
0.0000000000000000e+00 2.0000000000000001e-01 1.8200000000000003e+01 0
0.0000000000000000e+00 2.0000000000000001e-01 1.8400000000000006e+01 0
0.0000000000000000e+00 2.0000000000000001e-01 1.8600000000000009e+01 0
0.0000000000000000e+00 2.0000000000000001e-01 1.8800000000000011e+01 0
0.0000000000000000e+00 2.0000000000000001e-01 1.9000000000000014e+01 0
0.0000000000000000e+00 2.0000000000000001e-01 1.9200000000000017e+01 0
0.0000000000000000e+00 2.0000000000000001e-01 1.9400000000000020e+01 0
0.0000000000000000e+00 2.0000000000000001e-01 1.9600000000000023e+01 0
0.0000000000000000e+00 2.0000000000000001e-01 1.9800000000000026e+01 0
2.0000000000000001e-01 0.0000000000000000e+00 -1.9800000000000001e+01 0
2.0000000000000001e-01 0.0000000000000000e+00 -1.9600000000000001e+01 0
2.0000000000000001e-01 0.0000000000000000e+00 -1.9399999999999999e+01 0
2.0000000000000001e-01 0.0000000000000000e+00 -1.9199999999999999e+01 0
2.0000000000000001e-01 0.0000000000000000e+00 -1.9000000000000000e+01 0
2.0000000000000001e-01 0.0000000000000000e+00 -1.8800000000000001e+01 0
2.0000000000000001e-01 0.0000000000000000e+00 -1.8600000000000001e+01 0
2.0000000000000001e-01 0.0000000000000000e+00 -1.8399999999999999e+01 0
2.0000000000000001e-01 0.0000000000000000e+00 -1.8199999999999999e+01 0
2.0000000000000001e-01 0.0000000000000000e+00 -1.8000000000000000e+01 0
2.0000000000000001e-01 0.0000000000000000e+00 -1.7800000000000001e+01 0
2.0000000000000001e-01 0.0000000000000000e+00 -1.7600000000000001e+01 0
2.0000000000000001e-01 0.0000000000000000e+00 -1.7399999999999999e+01 0
2.0000000000000001e-01 0.0000000000000000e+00 -1.7199999999999999e+01 0
2.0000000000000001e-01 0.0000000000000000e+00 -1.7000000000000000e+01 0
2.0000000000000001e-01 0.0000000000000000e+00 -1.6800000000000001e+01 0
2.0000000000000001e-01 0.0000000000000000e+00 -1.6599999999999998e+01 0
2.0000000000000001e-01 0.0000000000000000e+00 -1.6399999999999999e+01 0
2.0000000000000001e-01 0.0000000000000000e+00 -1.6199999999999999e+01 0
2.0000000000000001e-01 0.0000000000000000e+00 -1.6000000000000000e+01 0
2.0000000000000001e-01 0.0000000000000000e+00 -1.5799999999999999e+01 0
2.0000000000000001e-01 0.0000000000000000e+00 -1.5599999999999998e+01 0
2.0000000000000001e-01 0.0000000000000000e+00 -1.5399999999999999e+01 0
2.0000000000000001e-01 0.0000000000000000e+00 -1.5199999999999999e+01 0
2.0000000000000001e-01 0.0000000000000000e+00 -1.4999999999999998e+01 0
2.0000000000000001e-01 0.0000000000000000e+00 -1.4799999999999997e+01 0
2.0000000000000001e-01 0.0000000000000000e+00 -1.4599999999999998e+01 0
2.0000000000000001e-01 0.0000000000000000e+00 -1.4399999999999999e+01 0
2.0000000000000001e-01 0.0000000000000000e+00 -1.4199999999999998e+01 0
2.0000000000000001e-01 0.0000000000000000e+00 -1.3999999999999996e+01 0
2.0000000000000001e-01 0.0000000000000000e+00 -1.3799999999999997e+01 0
2.0000000000000001e-01 0.0000000000000000e+00 -1.3599999999999998e+01 0
2.0000000000000001e-01 0.0000000000000000e+00 -1.3399999999999997e+01 0
2.0000000000000001e-01 0.0000000000000000e+00 -1.3199999999999996e+01 0
2.0000000000000001e-01 0.0000000000000000e+00 -1.2999999999999996e+01 0
2.0000000000000001e-01 0.0000000000000000e+00 -1.2799999999999997e+01 0
2.0000000000000001e-01 0.0000000000000000e+00 -1.2599999999999996e+01 0
2.0000000000000001e-01 0.0000000000000000e+00 -1.2399999999999995e+01 0
2.0000000000000001e-01 0.0000000000000000e+00 -1.2199999999999996e+01 0
2.0000000000000001e-01 0.0000000000000000e+00 -1.1999999999999996e+01 0
2.0000000000000001e-01 0.0000000000000000e+00 -1.1799999999999997e+01 0
2.0000000000000001e-01 0.0000000000000000e+00 -1.1599999999999998e+01 0
2.0000000000000001e-01 0.0000000000000000e+00 -1.1399999999999999e+01 0
2.0000000000000001e-01 0.0000000000000000e+00 -1.1199999999999999e+01 0
2.0000000000000001e-01 0.0000000000000000e+00 -1.1000000000000000e+01 0
2.0000000000000001e-01 0.0000000000000000e+00 -1.0800000000000001e+01 0
2.0000000000000001e-01 0.0000000000000000e+00 -1.0600000000000001e+01 0
2.0000000000000001e-01 0.0000000000000000e+00 -1.0400000000000002e+01 0
2.0000000000000001e-01 0.0000000000000000e+00 -1.0200000000000003e+01 0
2.0000000000000001e-01 0.0000000000000000e+00 -1.0000000000000004e+01 0
2.0000000000000001e-01 0.0000000000000000e+00 -9.8000000000000043e+00 0
2.0000000000000001e-01 0.0000000000000000e+00 -9.6000000000000050e+00 0
2.0000000000000001e-01 0.0000000000000000e+00 -9.4000000000000057e+00 0
2.0000000000000001e-01 0.0000000000000000e+00 -9.2000000000000064e+00 0
2.0000000000000001e-01 0.0000000000000000e+00 -9.0000000000000071e+00 0
2.0000000000000001e-01 0.0000000000000000e+00 -8.8000000000000078e+00 0
2.0000000000000001e-01 0.0000000000000000e+00 -8.6000000000000085e+00 0
2.0000000000000001e-01 0.0000000000000000e+00 -8.4000000000000092e+00 0
2.0000000000000001e-01 0.0000000000000000e+00 -8.2000000000000099e+00 0
2.0000000000000001e-01 0.0000000000000000e+00 -8.0000000000000107e+00 0
2.0000000000000001e-01 0.0000000000000000e+00 -7.8000000000000114e+00 0
2.0000000000000001e-01 0.0000000000000000e+00 -7.6000000000000121e+00 0
2.0000000000000001e-01 0.0000000000000000e+00 -7.4000000000000128e+00 0
2.0000000000000001e-01 0.0000000000000000e+00 -7.2000000000000135e+00 0
2.0000000000000001e-01 0.0000000000000000e+00 -7.0000000000000142e+00 0
2.0000000000000001e-01 0.0000000000000000e+00 -6.8000000000000149e+00 0
2.0000000000000001e-01 0.0000000000000000e+00 -6.6000000000000156e+00 0
2.0000000000000001e-01 0.0000000000000000e+00 -6.4000000000000163e+00 0
2.0000000000000001e-01 0.0000000000000000e+00 -6.2000000000000171e+00 0
2.0000000000000001e-01 0.0000000000000000e+00 -6.0000000000000178e+00 0
2.0000000000000001e-01 0.0000000000000000e+00 -5.8000000000000185e+00 0
2.0000000000000001e-01 0.0000000000000000e+00 -5.6000000000000192e+00 0
2.0000000000000001e-01 0.0000000000000000e+00 -5.4000000000000199e+00 0
2.0000000000000001e-01 0.0000000000000000e+00 -5.2000000000000206e+00 0
2.0000000000000001e-01 0.0000000000000000e+00 -5.0000000000000213e+00 0
2.0000000000000001e-01 0.0000000000000000e+00 -4.8000000000000220e+00 0
2.0000000000000001e-01 0.0000000000000000e+00 -4.6000000000000227e+00 0
2.0000000000000001e-01 0.0000000000000000e+00 -4.4000000000000234e+00 0
2.0000000000000001e-01 0.0000000000000000e+00 -4.2000000000000242e+00 0
2.0000000000000001e-01 0.0000000000000000e+00 -4.0000000000000249e+00 0
2.0000000000000001e-01 0.0000000000000000e+00 -3.8000000000000256e+00 0
2.0000000000000001e-01 0.0000000000000000e+00 -3.6000000000000263e+00 0
2.0000000000000001e-01 0.0000000000000000e+00 -3.4000000000000270e+00 0
2.0000000000000001e-01 0.0000000000000000e+00 -3.2000000000000277e+00 0
2.0000000000000001e-01 0.0000000000000000e+00 -3.0000000000000284e+00 0
2.0000000000000001e-01 0.0000000000000000e+00 -2.8000000000000291e+00 0
2.0000000000000001e-01 0.0000000000000000e+00 -2.6000000000000298e+00 0
2.0000000000000001e-01 0.0000000000000000e+00 -2.4000000000000306e+00 0
2.0000000000000001e-01 0.0000000000000000e+00 -2.2000000000000313e+00 0
2.0000000000000001e-01 0.0000000000000000e+00 -2.0000000000000320e+00 0
2.0000000000000001e-01 0.0000000000000000e+00 -1.8000000000000327e+00 0
2.0000000000000001e-01 0.0000000000000000e+00 -1.6000000000000334e+00 0
2.0000000000000001e-01 0.0000000000000000e+00 -1.4000000000000341e+00 0
2.0000000000000001e-01 0.0000000000000000e+00 -1.2000000000000348e+00 0
2.0000000000000001e-01 0.0000000000000000e+00 -1.0000000000000355e+00 0
2.0000000000000001e-01 0.0000000000000000e+00 -8.0000000000003624e-01 0
2.0000000000000001e-01 0.0000000000000000e+00 -6.0000000000003695e-01 0
2.0000000000000001e-01 0.0000000000000000e+00 -4.0000000000003766e-01 0
2.0000000000000001e-01 0.0000000000000000e+00 -2.0000000000003837e-01 0
2.0000000000000001e-01 0.0000000000000000e+00 -3.9079850466805510e-14 0
2.0000000000000001e-01 0.0000000000000000e+00 1.9999999999996021e-01 0
2.0000000000000001e-01 0.0000000000000000e+00 3.9999999999995950e-01 0
2.0000000000000001e-01 0.0000000000000000e+00 5.9999999999995879e-01 0
2.0000000000000001e-01 0.0000000000000000e+00 7.9999999999995808e-01 0
2.0000000000000001e-01 0.0000000000000000e+00 9.9999999999995737e-01 0
2.0000000000000001e-01 0.0000000000000000e+00 1.1999999999999567e+00 0
2.0000000000000001e-01 0.0000000000000000e+00 1.3999999999999559e+00 0
2.0000000000000001e-01 0.0000000000000000e+00 1.5999999999999552e+00 0
2.0000000000000001e-01 0.0000000000000000e+00 1.7999999999999545e+00 0
2.0000000000000001e-01 0.0000000000000000e+00 1.9999999999999538e+00 0
2.0000000000000001e-01 0.0000000000000000e+00 2.1999999999999531e+00 0
2.0000000000000001e-01 0.0000000000000000e+00 2.3999999999999524e+00 0
2.0000000000000001e-01 0.0000000000000000e+00 2.5999999999999517e+00 0
2.0000000000000001e-01 0.0000000000000000e+00 2.7999999999999510e+00 0
2.0000000000000001e-01 0.0000000000000000e+00 2.9999999999999503e+00 0
2.0000000000000001e-01 0.0000000000000000e+00 3.1999999999999496e+00 0
2.0000000000000001e-01 0.0000000000000000e+00 3.3999999999999488e+00 0
2.0000000000000001e-01 0.0000000000000000e+00 3.5999999999999481e+00 0
2.0000000000000001e-01 0.0000000000000000e+00 3.7999999999999474e+00 0
2.0000000000000001e-01 0.0000000000000000e+00 3.9999999999999467e+00 0
2.0000000000000001e-01 0.0000000000000000e+00 4.1999999999999460e+00 0
2.0000000000000001e-01 0.0000000000000000e+00 4.3999999999999453e+00 0
2.0000000000000001e-01 0.0000000000000000e+00 4.5999999999999446e+00 0
2.0000000000000001e-01 0.0000000000000000e+00 4.7999999999999439e+00 0
2.0000000000000001e-01 0.0000000000000000e+00 4.9999999999999432e+00 0
2.0000000000000001e-01 0.0000000000000000e+00 5.1999999999999424e+00 0
2.0000000000000001e-01 0.0000000000000000e+00 5.3999999999999417e+00 0
2.0000000000000001e-01 0.0000000000000000e+00 5.5999999999999410e+00 0
2.0000000000000001e-01 0.0000000000000000e+00 5.7999999999999403e+00 0
2.0000000000000001e-01 0.0000000000000000e+00 5.9999999999999396e+00 0
2.0000000000000001e-01 0.0000000000000000e+00 6.1999999999999389e+00 0
2.0000000000000001e-01 0.0000000000000000e+00 6.3999999999999382e+00 0
2.0000000000000001e-01 0.0000000000000000e+00 6.5999999999999375e+00 0
2.0000000000000001e-01 0.0000000000000000e+00 6.7999999999999368e+00 0
2.0000000000000001e-01 0.0000000000000000e+00 6.9999999999999361e+00 0
2.0000000000000001e-01 0.0000000000000000e+00 7.1999999999999353e+00 0
2.0000000000000001e-01 0.0000000000000000e+00 7.3999999999999346e+00 0
2.0000000000000001e-01 0.0000000000000000e+00 7.5999999999999339e+00 0
2.0000000000000001e-01 0.0000000000000000e+00 7.7999999999999332e+00 0
2.0000000000000001e-01 0.0000000000000000e+00 7.9999999999999325e+00 0
2.0000000000000001e-01 0.0000000000000000e+00 8.1999999999999318e+00 0
2.0000000000000001e-01 0.0000000000000000e+00 8.3999999999999311e+00 0
2.0000000000000001e-01 0.0000000000000000e+00 8.5999999999999304e+00 0
2.0000000000000001e-01 0.0000000000000000e+00 8.7999999999999297e+00 0
2.0000000000000001e-01 0.0000000000000000e+00 8.9999999999999289e+00 0
2.0000000000000001e-01 0.0000000000000000e+00 9.1999999999999282e+00 0
2.0000000000000001e-01 0.0000000000000000e+00 9.3999999999999275e+00 0
2.0000000000000001e-01 0.0000000000000000e+00 9.5999999999999268e+00 0
2.0000000000000001e-01 0.0000000000000000e+00 9.7999999999999261e+00 0
2.0000000000000001e-01 0.0000000000000000e+00 9.9999999999999254e+00 0
2.0000000000000001e-01 0.0000000000000000e+00 1.0199999999999925e+01 0
2.0000000000000001e-01 0.0000000000000000e+00 1.0399999999999924e+01 0
2.0000000000000001e-01 0.0000000000000000e+00 1.0599999999999923e+01 0
2.0000000000000001e-01 0.0000000000000000e+00 1.0799999999999923e+01 0
2.0000000000000001e-01 0.0000000000000000e+00 1.0999999999999922e+01 0
2.0000000000000001e-01 0.0000000000000000e+00 1.1199999999999921e+01 0
2.0000000000000001e-01 0.0000000000000000e+00 1.1399999999999920e+01 0
2.0000000000000001e-01 0.0000000000000000e+00 1.1599999999999920e+01 0
2.0000000000000001e-01 0.0000000000000000e+00 1.1799999999999919e+01 0
2.0000000000000001e-01 0.0000000000000000e+00 1.1999999999999918e+01 0
2.0000000000000001e-01 0.0000000000000000e+00 1.2199999999999918e+01 0
2.0000000000000001e-01 0.0000000000000000e+00 1.2399999999999920e+01 0
2.0000000000000001e-01 0.0000000000000000e+00 1.2599999999999923e+01 0
2.0000000000000001e-01 0.0000000000000000e+00 1.2799999999999926e+01 0
2.0000000000000001e-01 0.0000000000000000e+00 1.2999999999999929e+01 0
2.0000000000000001e-01 0.0000000000000000e+00 1.3199999999999932e+01 0
2.0000000000000001e-01 0.0000000000000000e+00 1.3399999999999935e+01 0
2.0000000000000001e-01 0.0000000000000000e+00 1.3599999999999937e+01 0
2.0000000000000001e-01 0.0000000000000000e+00 1.3799999999999940e+01 0
2.0000000000000001e-01 0.0000000000000000e+00 1.3999999999999943e+01 0
2.0000000000000001e-01 0.0000000000000000e+00 1.4199999999999946e+01 0
2.0000000000000001e-01 0.0000000000000000e+00 1.4399999999999949e+01 0
2.0000000000000001e-01 0.0000000000000000e+00 1.4599999999999952e+01 0
2.0000000000000001e-01 0.0000000000000000e+00 1.4799999999999955e+01 0
2.0000000000000001e-01 0.0000000000000000e+00 1.4999999999999957e+01 0
2.0000000000000001e-01 0.0000000000000000e+00 1.5199999999999960e+01 0
2.0000000000000001e-01 0.0000000000000000e+00 1.5399999999999963e+01 0
2.0000000000000001e-01 0.0000000000000000e+00 1.5599999999999966e+01 0
2.0000000000000001e-01 0.0000000000000000e+00 1.5799999999999969e+01 0
2.0000000000000001e-01 0.0000000000000000e+00 1.5999999999999972e+01 0
2.0000000000000001e-01 0.0000000000000000e+00 1.6199999999999974e+01 0
2.0000000000000001e-01 0.0000000000000000e+00 1.6399999999999977e+01 0
2.0000000000000001e-01 0.0000000000000000e+00 1.6599999999999980e+01 0
2.0000000000000001e-01 0.0000000000000000e+00 1.6799999999999983e+01 0
2.0000000000000001e-01 0.0000000000000000e+00 1.6999999999999986e+01 0
2.0000000000000001e-01 0.0000000000000000e+00 1.7199999999999989e+01 0
2.0000000000000001e-01 0.0000000000000000e+00 1.7399999999999991e+01 0
2.0000000000000001e-01 0.0000000000000000e+00 1.7599999999999994e+01 0
2.0000000000000001e-01 0.0000000000000000e+00 1.7799999999999997e+01 0
2.0000000000000001e-01 0.0000000000000000e+00 1.8000000000000000e+01 0
2.0000000000000001e-01 0.0000000000000000e+00 1.8200000000000003e+01 0
2.0000000000000001e-01 0.0000000000000000e+00 1.8400000000000006e+01 0
2.0000000000000001e-01 0.0000000000000000e+00 1.8600000000000009e+01 0
2.0000000000000001e-01 0.0000000000000000e+00 1.8800000000000011e+01 0
2.0000000000000001e-01 0.0000000000000000e+00 1.9000000000000014e+01 0
2.0000000000000001e-01 0.0000000000000000e+00 1.9200000000000017e+01 0
2.0000000000000001e-01 0.0000000000000000e+00 1.9400000000000020e+01 0
2.0000000000000001e-01 0.0000000000000000e+00 1.9600000000000023e+01 0
2.0000000000000001e-01 0.0000000000000000e+00 1.9800000000000026e+01 0
2.0000000000000001e-01 2.0000000000000001e-01 -1.9800000000000001e+01 0
2.0000000000000001e-01 2.0000000000000001e-01 -1.9600000000000001e+01 0
2.0000000000000001e-01 2.0000000000000001e-01 -1.9399999999999999e+01 0
2.0000000000000001e-01 2.0000000000000001e-01 -1.9199999999999999e+01 0
2.0000000000000001e-01 2.0000000000000001e-01 -1.9000000000000000e+01 0
2.0000000000000001e-01 2.0000000000000001e-01 -1.8800000000000001e+01 0
2.0000000000000001e-01 2.0000000000000001e-01 -1.8600000000000001e+01 0
2.0000000000000001e-01 2.0000000000000001e-01 -1.8399999999999999e+01 0
2.0000000000000001e-01 2.0000000000000001e-01 -1.8199999999999999e+01 0
2.0000000000000001e-01 2.0000000000000001e-01 -1.8000000000000000e+01 0
2.0000000000000001e-01 2.0000000000000001e-01 -1.7800000000000001e+01 0
2.0000000000000001e-01 2.0000000000000001e-01 -1.7600000000000001e+01 0
2.0000000000000001e-01 2.0000000000000001e-01 -1.7399999999999999e+01 0
2.0000000000000001e-01 2.0000000000000001e-01 -1.7199999999999999e+01 0
2.0000000000000001e-01 2.0000000000000001e-01 -1.7000000000000000e+01 0
2.0000000000000001e-01 2.0000000000000001e-01 -1.6800000000000001e+01 0
2.0000000000000001e-01 2.0000000000000001e-01 -1.6599999999999998e+01 0
2.0000000000000001e-01 2.0000000000000001e-01 -1.6399999999999999e+01 0
2.0000000000000001e-01 2.0000000000000001e-01 -1.6199999999999999e+01 0
2.0000000000000001e-01 2.0000000000000001e-01 -1.6000000000000000e+01 0
2.0000000000000001e-01 2.0000000000000001e-01 -1.5799999999999999e+01 0
2.0000000000000001e-01 2.0000000000000001e-01 -1.5599999999999998e+01 0
2.0000000000000001e-01 2.0000000000000001e-01 -1.5399999999999999e+01 0
2.0000000000000001e-01 2.0000000000000001e-01 -1.5199999999999999e+01 0
2.0000000000000001e-01 2.0000000000000001e-01 -1.4999999999999998e+01 0
2.0000000000000001e-01 2.0000000000000001e-01 -1.4799999999999997e+01 0
2.0000000000000001e-01 2.0000000000000001e-01 -1.4599999999999998e+01 0
2.0000000000000001e-01 2.0000000000000001e-01 -1.4399999999999999e+01 0
2.0000000000000001e-01 2.0000000000000001e-01 -1.4199999999999998e+01 0
2.0000000000000001e-01 2.0000000000000001e-01 -1.3999999999999996e+01 0
2.0000000000000001e-01 2.0000000000000001e-01 -1.3799999999999997e+01 0
2.0000000000000001e-01 2.0000000000000001e-01 -1.3599999999999998e+01 0
2.0000000000000001e-01 2.0000000000000001e-01 -1.3399999999999997e+01 0
2.0000000000000001e-01 2.0000000000000001e-01 -1.3199999999999996e+01 0
2.0000000000000001e-01 2.0000000000000001e-01 -1.2999999999999996e+01 0
2.0000000000000001e-01 2.0000000000000001e-01 -1.2799999999999997e+01 0
2.0000000000000001e-01 2.0000000000000001e-01 -1.2599999999999996e+01 0
2.0000000000000001e-01 2.0000000000000001e-01 -1.2399999999999995e+01 0
2.0000000000000001e-01 2.0000000000000001e-01 -1.2199999999999996e+01 0
2.0000000000000001e-01 2.0000000000000001e-01 -1.1999999999999996e+01 0
2.0000000000000001e-01 2.0000000000000001e-01 -1.1799999999999997e+01 0
2.0000000000000001e-01 2.0000000000000001e-01 -1.1599999999999998e+01 0
2.0000000000000001e-01 2.0000000000000001e-01 -1.1399999999999999e+01 0
2.0000000000000001e-01 2.0000000000000001e-01 -1.1199999999999999e+01 0
2.0000000000000001e-01 2.0000000000000001e-01 -1.1000000000000000e+01 0
2.0000000000000001e-01 2.0000000000000001e-01 -1.0800000000000001e+01 0
2.0000000000000001e-01 2.0000000000000001e-01 -1.0600000000000001e+01 0
2.0000000000000001e-01 2.0000000000000001e-01 -1.0400000000000002e+01 0
2.0000000000000001e-01 2.0000000000000001e-01 -1.0200000000000003e+01 0
2.0000000000000001e-01 2.0000000000000001e-01 -1.0000000000000004e+01 0
2.0000000000000001e-01 2.0000000000000001e-01 -9.8000000000000043e+00 0
2.0000000000000001e-01 2.0000000000000001e-01 -9.6000000000000050e+00 0
2.0000000000000001e-01 2.0000000000000001e-01 -9.4000000000000057e+00 0
2.0000000000000001e-01 2.0000000000000001e-01 -9.2000000000000064e+00 0
2.0000000000000001e-01 2.0000000000000001e-01 -9.0000000000000071e+00 0
2.0000000000000001e-01 2.0000000000000001e-01 -8.8000000000000078e+00 0
2.0000000000000001e-01 2.0000000000000001e-01 -8.6000000000000085e+00 0
2.0000000000000001e-01 2.0000000000000001e-01 -8.4000000000000092e+00 0
2.0000000000000001e-01 2.0000000000000001e-01 -8.2000000000000099e+00 0
2.0000000000000001e-01 2.0000000000000001e-01 -8.0000000000000107e+00 0
2.0000000000000001e-01 2.0000000000000001e-01 -7.8000000000000114e+00 0
2.0000000000000001e-01 2.0000000000000001e-01 -7.6000000000000121e+00 0
2.0000000000000001e-01 2.0000000000000001e-01 -7.4000000000000128e+00 0
2.0000000000000001e-01 2.0000000000000001e-01 -7.2000000000000135e+00 0
2.0000000000000001e-01 2.0000000000000001e-01 -7.0000000000000142e+00 0
2.0000000000000001e-01 2.0000000000000001e-01 -6.8000000000000149e+00 0
2.0000000000000001e-01 2.0000000000000001e-01 -6.6000000000000156e+00 0
2.0000000000000001e-01 2.0000000000000001e-01 -6.4000000000000163e+00 0
2.0000000000000001e-01 2.0000000000000001e-01 -6.2000000000000171e+00 0
2.0000000000000001e-01 2.0000000000000001e-01 -6.0000000000000178e+00 0
2.0000000000000001e-01 2.0000000000000001e-01 -5.8000000000000185e+00 0
2.0000000000000001e-01 2.0000000000000001e-01 -5.6000000000000192e+00 0
2.0000000000000001e-01 2.0000000000000001e-01 -5.4000000000000199e+00 0
2.0000000000000001e-01 2.0000000000000001e-01 -5.2000000000000206e+00 0
2.0000000000000001e-01 2.0000000000000001e-01 -5.0000000000000213e+00 0
2.0000000000000001e-01 2.0000000000000001e-01 -4.8000000000000220e+00 0
2.0000000000000001e-01 2.0000000000000001e-01 -4.6000000000000227e+00 0
2.0000000000000001e-01 2.0000000000000001e-01 -4.4000000000000234e+00 0
2.0000000000000001e-01 2.0000000000000001e-01 -4.2000000000000242e+00 0
2.0000000000000001e-01 2.0000000000000001e-01 -4.0000000000000249e+00 0
2.0000000000000001e-01 2.0000000000000001e-01 -3.8000000000000256e+00 0
2.0000000000000001e-01 2.0000000000000001e-01 -3.6000000000000263e+00 0
2.0000000000000001e-01 2.0000000000000001e-01 -3.4000000000000270e+00 0
2.0000000000000001e-01 2.0000000000000001e-01 -3.2000000000000277e+00 0
2.0000000000000001e-01 2.0000000000000001e-01 -3.0000000000000284e+00 0
2.0000000000000001e-01 2.0000000000000001e-01 -2.8000000000000291e+00 0
2.0000000000000001e-01 2.0000000000000001e-01 -2.6000000000000298e+00 0
2.0000000000000001e-01 2.0000000000000001e-01 -2.4000000000000306e+00 0
2.0000000000000001e-01 2.0000000000000001e-01 -2.2000000000000313e+00 0
2.0000000000000001e-01 2.0000000000000001e-01 -2.0000000000000320e+00 0
2.0000000000000001e-01 2.0000000000000001e-01 -1.8000000000000327e+00 0
2.0000000000000001e-01 2.0000000000000001e-01 -1.6000000000000334e+00 0
2.0000000000000001e-01 2.0000000000000001e-01 -1.4000000000000341e+00 0
2.0000000000000001e-01 2.0000000000000001e-01 -1.2000000000000348e+00 0
2.0000000000000001e-01 2.0000000000000001e-01 -1.0000000000000355e+00 0
2.0000000000000001e-01 2.0000000000000001e-01 -8.0000000000003624e-01 0
2.0000000000000001e-01 2.0000000000000001e-01 -6.0000000000003695e-01 0
2.0000000000000001e-01 2.0000000000000001e-01 -4.0000000000003766e-01 0
2.0000000000000001e-01 2.0000000000000001e-01 -2.0000000000003837e-01 0
2.0000000000000001e-01 2.0000000000000001e-01 -3.9079850466805510e-14 0
2.0000000000000001e-01 2.0000000000000001e-01 1.9999999999996021e-01 0
2.0000000000000001e-01 2.0000000000000001e-01 3.9999999999995950e-01 0
2.0000000000000001e-01 2.0000000000000001e-01 5.9999999999995879e-01 0
2.0000000000000001e-01 2.0000000000000001e-01 7.9999999999995808e-01 0
2.0000000000000001e-01 2.0000000000000001e-01 9.9999999999995737e-01 0
2.0000000000000001e-01 2.0000000000000001e-01 1.1999999999999567e+00 0
2.0000000000000001e-01 2.0000000000000001e-01 1.3999999999999559e+00 0
2.0000000000000001e-01 2.0000000000000001e-01 1.5999999999999552e+00 0
2.0000000000000001e-01 2.0000000000000001e-01 1.7999999999999545e+00 0
2.0000000000000001e-01 2.0000000000000001e-01 1.9999999999999538e+00 0
2.0000000000000001e-01 2.0000000000000001e-01 2.1999999999999531e+00 0
2.0000000000000001e-01 2.0000000000000001e-01 2.3999999999999524e+00 0
2.0000000000000001e-01 2.0000000000000001e-01 2.5999999999999517e+00 0
2.0000000000000001e-01 2.0000000000000001e-01 2.7999999999999510e+00 0
2.0000000000000001e-01 2.0000000000000001e-01 2.9999999999999503e+00 0
2.0000000000000001e-01 2.0000000000000001e-01 3.1999999999999496e+00 0
2.0000000000000001e-01 2.0000000000000001e-01 3.3999999999999488e+00 0
2.0000000000000001e-01 2.0000000000000001e-01 3.5999999999999481e+00 0
2.0000000000000001e-01 2.0000000000000001e-01 3.7999999999999474e+00 0
2.0000000000000001e-01 2.0000000000000001e-01 3.9999999999999467e+00 0
2.0000000000000001e-01 2.0000000000000001e-01 4.1999999999999460e+00 0
2.0000000000000001e-01 2.0000000000000001e-01 4.3999999999999453e+00 0
2.0000000000000001e-01 2.0000000000000001e-01 4.5999999999999446e+00 0
2.0000000000000001e-01 2.0000000000000001e-01 4.7999999999999439e+00 0
2.0000000000000001e-01 2.0000000000000001e-01 4.9999999999999432e+00 0
2.0000000000000001e-01 2.0000000000000001e-01 5.1999999999999424e+00 0
2.0000000000000001e-01 2.0000000000000001e-01 5.3999999999999417e+00 0
2.0000000000000001e-01 2.0000000000000001e-01 5.5999999999999410e+00 0
2.0000000000000001e-01 2.0000000000000001e-01 5.7999999999999403e+00 0
2.0000000000000001e-01 2.0000000000000001e-01 5.9999999999999396e+00 0
2.0000000000000001e-01 2.0000000000000001e-01 6.1999999999999389e+00 0
2.0000000000000001e-01 2.0000000000000001e-01 6.3999999999999382e+00 0
2.0000000000000001e-01 2.0000000000000001e-01 6.5999999999999375e+00 0
2.0000000000000001e-01 2.0000000000000001e-01 6.7999999999999368e+00 0
2.0000000000000001e-01 2.0000000000000001e-01 6.9999999999999361e+00 0
2.0000000000000001e-01 2.0000000000000001e-01 7.1999999999999353e+00 0
2.0000000000000001e-01 2.0000000000000001e-01 7.3999999999999346e+00 0
2.0000000000000001e-01 2.0000000000000001e-01 7.5999999999999339e+00 0
2.0000000000000001e-01 2.0000000000000001e-01 7.7999999999999332e+00 0
2.0000000000000001e-01 2.0000000000000001e-01 7.9999999999999325e+00 0
2.0000000000000001e-01 2.0000000000000001e-01 8.1999999999999318e+00 0
2.0000000000000001e-01 2.0000000000000001e-01 8.3999999999999311e+00 0
2.0000000000000001e-01 2.0000000000000001e-01 8.5999999999999304e+00 0
2.0000000000000001e-01 2.0000000000000001e-01 8.7999999999999297e+00 0
2.0000000000000001e-01 2.0000000000000001e-01 8.9999999999999289e+00 0
2.0000000000000001e-01 2.0000000000000001e-01 9.1999999999999282e+00 0
2.0000000000000001e-01 2.0000000000000001e-01 9.3999999999999275e+00 0
2.0000000000000001e-01 2.0000000000000001e-01 9.5999999999999268e+00 0
2.0000000000000001e-01 2.0000000000000001e-01 9.7999999999999261e+00 0
2.0000000000000001e-01 2.0000000000000001e-01 9.9999999999999254e+00 0
2.0000000000000001e-01 2.0000000000000001e-01 1.0199999999999925e+01 0
2.0000000000000001e-01 2.0000000000000001e-01 1.0399999999999924e+01 0
2.0000000000000001e-01 2.0000000000000001e-01 1.0599999999999923e+01 0
2.0000000000000001e-01 2.0000000000000001e-01 1.0799999999999923e+01 0
2.0000000000000001e-01 2.0000000000000001e-01 1.0999999999999922e+01 0
2.0000000000000001e-01 2.0000000000000001e-01 1.1199999999999921e+01 0
2.0000000000000001e-01 2.0000000000000001e-01 1.1399999999999920e+01 0
2.0000000000000001e-01 2.0000000000000001e-01 1.1599999999999920e+01 0
2.0000000000000001e-01 2.0000000000000001e-01 1.1799999999999919e+01 0
2.0000000000000001e-01 2.0000000000000001e-01 1.1999999999999918e+01 0
2.0000000000000001e-01 2.0000000000000001e-01 1.2199999999999918e+01 0
2.0000000000000001e-01 2.0000000000000001e-01 1.2399999999999920e+01 0
2.0000000000000001e-01 2.0000000000000001e-01 1.2599999999999923e+01 0
2.0000000000000001e-01 2.0000000000000001e-01 1.2799999999999926e+01 0
2.0000000000000001e-01 2.0000000000000001e-01 1.2999999999999929e+01 0
2.0000000000000001e-01 2.0000000000000001e-01 1.3199999999999932e+01 0
2.0000000000000001e-01 2.0000000000000001e-01 1.3399999999999935e+01 0
2.0000000000000001e-01 2.0000000000000001e-01 1.3599999999999937e+01 0
2.0000000000000001e-01 2.0000000000000001e-01 1.3799999999999940e+01 0
2.0000000000000001e-01 2.0000000000000001e-01 1.3999999999999943e+01 0
2.0000000000000001e-01 2.0000000000000001e-01 1.4199999999999946e+01 0
2.0000000000000001e-01 2.0000000000000001e-01 1.4399999999999949e+01 0
2.0000000000000001e-01 2.0000000000000001e-01 1.4599999999999952e+01 0
2.0000000000000001e-01 2.0000000000000001e-01 1.4799999999999955e+01 0
2.0000000000000001e-01 2.0000000000000001e-01 1.4999999999999957e+01 0
2.0000000000000001e-01 2.0000000000000001e-01 1.5199999999999960e+01 0
2.0000000000000001e-01 2.0000000000000001e-01 1.5399999999999963e+01 0
2.0000000000000001e-01 2.0000000000000001e-01 1.5599999999999966e+01 0
2.0000000000000001e-01 2.0000000000000001e-01 1.5799999999999969e+01 0
2.0000000000000001e-01 2.0000000000000001e-01 1.5999999999999972e+01 0
2.0000000000000001e-01 2.0000000000000001e-01 1.6199999999999974e+01 0
2.0000000000000001e-01 2.0000000000000001e-01 1.6399999999999977e+01 0
2.0000000000000001e-01 2.0000000000000001e-01 1.6599999999999980e+01 0
2.0000000000000001e-01 2.0000000000000001e-01 1.6799999999999983e+01 0
2.0000000000000001e-01 2.0000000000000001e-01 1.6999999999999986e+01 0
2.0000000000000001e-01 2.0000000000000001e-01 1.7199999999999989e+01 0
2.0000000000000001e-01 2.0000000000000001e-01 1.7399999999999991e+01 0
2.0000000000000001e-01 2.0000000000000001e-01 1.7599999999999994e+01 0
2.0000000000000001e-01 2.0000000000000001e-01 1.7799999999999997e+01 0
2.0000000000000001e-01 2.0000000000000001e-01 1.8000000000000000e+01 0
2.0000000000000001e-01 2.0000000000000001e-01 1.8200000000000003e+01 0
2.0000000000000001e-01 2.0000000000000001e-01 1.8400000000000006e+01 0
2.0000000000000001e-01 2.0000000000000001e-01 1.8600000000000009e+01 0
2.0000000000000001e-01 2.0000000000000001e-01 1.8800000000000011e+01 0
2.0000000000000001e-01 2.0000000000000001e-01 1.9000000000000014e+01 0
2.0000000000000001e-01 2.0000000000000001e-01 1.9200000000000017e+01 0
2.0000000000000001e-01 2.0000000000000001e-01 1.9400000000000020e+01 0
2.0000000000000001e-01 2.0000000000000001e-01 1.9600000000000023e+01 0
2.0000000000000001e-01 2.0000000000000001e-01 1.9800000000000026e+01 0

Hexahedra
200
1 3 406 207 5 7 804 605 0
207 406 405 206 605 804 803 604 0
206 405 404 205 604 803 802 603 0
205 404 403 204 603 802 801 602 0
204 403 402 203 602 801 800 601 0
203 402 401 202 601 800 799 600 0
202 401 400 201 600 799 798 599 0
201 400 399 200 599 798 797 598 0
200 399 398 199 598 797 796 597 0
199 398 397 198 597 796 795 596 0
198 397 396 197 596 795 794 595 0
197 396 395 196 595 794 793 594 0
196 395 394 195 594 793 792 593 0
195 394 393 194 593 792 791 592 0
194 393 392 193 592 791 790 591 0
193 392 391 192 591 790 789 590 0
192 391 390 191 590 789 788 589 0
191 390 389 190 589 788 787 588 0
190 389 388 189 588 787 786 587 0
189 388 387 188 587 786 785 586 0
188 387 386 187 586 785 784 585 0
187 386 385 186 585 784 783 584 0
186 385 384 185 584 783 782 583 0
185 384 383 184 583 782 781 582 0
184 383 382 183 582 781 780 581 0
183 382 381 182 581 780 779 580 0
182 381 380 181 580 779 778 579 0
181 380 379 180 579 778 777 578 0
180 379 378 179 578 777 776 577 0
179 378 377 178 577 776 775 576 0
178 377 376 177 576 775 774 575 0
177 376 375 176 575 774 773 574 0
176 375 374 175 574 773 772 573 0
175 374 373 174 573 772 771 572 0
174 373 372 173 572 771 770 571 0
173 372 371 172 571 770 769 570 0
172 371 370 171 570 769 768 569 0
171 370 369 170 569 768 767 568 0
170 369 368 169 568 767 766 567 0
169 368 367 168 567 766 765 566 0
168 367 366 167 566 765 764 565 0
167 366 365 166 565 764 763 564 0
166 365 364 165 564 763 762 563 0
165 364 363 164 563 762 761 562 0
164 363 362 163 562 761 760 561 0
163 362 361 162 561 760 759 560 0
162 361 360 161 560 759 758 559 0
161 360 359 160 559 758 757 558 0
160 359 358 159 558 757 756 557 0
159 358 357 158 557 756 755 556 0
158 357 356 157 556 755 754 555 0
157 356 355 156 555 754 753 554 0
156 355 354 155 554 753 752 553 0
155 354 353 154 553 752 751 552 0
154 353 352 153 552 751 750 551 0
153 352 351 152 551 750 749 550 0
152 351 350 151 550 749 748 549 0
151 350 349 150 549 748 747 548 0
150 349 348 149 548 747 746 547 0
149 348 347 148 547 746 745 546 0
148 347 346 147 546 745 744 545 0
147 346 345 146 545 744 743 544 0
146 345 344 145 544 743 742 543 0
145 344 343 144 543 742 741 542 0
144 343 342 143 542 741 740 541 0
143 342 341 142 541 740 739 540 0
142 341 340 141 540 739 738 539 0
141 340 339 140 539 738 737 538 0
140 339 338 139 538 737 736 537 0
139 338 337 138 537 736 735 536 0
138 337 336 137 536 735 734 535 0
137 336 335 136 535 734 733 534 0
136 335 334 135 534 733 732 533 0
135 334 333 134 533 732 731 532 0
134 333 332 133 532 731 730 531 0
133 332 331 132 531 730 729 530 0
132 331 330 131 530 729 728 529 0
131 330 329 130 529 728 727 528 0
130 329 328 129 528 727 726 527 0
129 328 327 128 527 726 725 526 0
128 327 326 127 526 725 724 525 0
127 326 325 126 525 724 723 524 0
126 325 324 125 524 723 722 523 0
125 324 323 124 523 722 721 522 0
124 323 322 123 522 721 720 521 0
123 322 321 122 521 720 719 520 0
122 321 320 121 520 719 718 519 0
121 320 319 120 519 718 717 518 0
120 319 318 119 518 717 716 517 0
119 318 317 118 517 716 715 516 0
118 317 316 117 516 715 714 515 0
117 316 315 116 515 714 713 514 0
116 315 314 115 514 713 712 513 0
115 314 313 114 513 712 711 512 0
114 313 312 113 512 711 710 511 0
113 312 311 112 511 710 709 510 0
112 311 310 111 510 709 708 509 0
111 310 309 110 509 708 707 508 0
110 309 308 109 508 707 706 507 0
109 308 307 108 507 706 705 506 0
108 307 306 107 506 705 704 505 0
107 306 305 106 505 704 703 504 0
106 305 304 105 504 703 702 503 0
105 304 303 104 503 702 701 502 0
104 303 302 103 502 701 700 501 0
103 302 301 102 501 700 699 500 0
102 301 300 101 500 699 698 499 0
101 300 299 100 499 698 697 498 0
100 299 298 99 498 697 696 497 0
99 298 297 98 497 696 695 496 0
98 297 296 97 496 695 694 495 0
97 296 295 96 495 694 693 494 0
96 295 294 95 494 693 692 493 0
95 294 293 94 493 692 691 492 0
94 293 292 93 492 691 690 491 0
93 292 291 92 491 690 689 490 0
92 291 290 91 490 689 688 489 0
91 290 289 90 489 688 687 488 0
90 289 288 89 488 687 686 487 0
89 288 287 88 487 686 685 486 0
88 287 286 87 486 685 684 485 0
87 286 285 86 485 684 683 484 0
86 285 284 85 484 683 682 483 0
85 284 283 84 483 682 681 482 0
84 283 282 83 482 681 680 481 0
83 282 281 82 481 680 679 480 0
82 281 280 81 480 679 678 479 0
81 280 279 80 479 678 677 478 0
80 279 278 79 478 677 676 477 0
79 278 277 78 477 676 675 476 0
78 277 276 77 476 675 674 475 0
77 276 275 76 475 674 673 474 0
76 275 274 75 474 673 672 473 0
75 274 273 74 473 672 671 472 0
74 273 272 73 472 671 670 471 0
73 272 271 72 471 670 669 470 0
72 271 270 71 470 669 668 469 0
71 270 269 70 469 668 667 468 0
70 269 268 69 468 667 666 467 0
69 268 267 68 467 666 665 466 0
68 267 266 67 466 665 664 465 0
67 266 265 66 465 664 663 464 0
66 265 264 65 464 663 662 463 0
65 264 263 64 463 662 661 462 0
64 263 262 63 462 661 660 461 0
63 262 261 62 461 660 659 460 0
62 261 260 61 460 659 658 459 0
61 260 259 60 459 658 657 458 0
60 259 258 59 458 657 656 457 0
59 258 257 58 457 656 655 456 0
58 257 256 57 456 655 654 455 0
57 256 255 56 455 654 653 454 0
56 255 254 55 454 653 652 453 0
55 254 253 54 453 652 651 452 0
54 253 252 53 452 651 650 451 0
53 252 251 52 451 650 649 450 0
52 251 250 51 450 649 648 449 0
51 250 249 50 449 648 647 448 0
50 249 248 49 448 647 646 447 0
49 248 247 48 447 646 645 446 0
48 247 246 47 446 645 644 445 0
47 246 245 46 445 644 643 444 0
46 245 244 45 444 643 642 443 0
45 244 243 44 443 642 641 442 0
44 243 242 43 442 641 640 441 0
43 242 241 42 441 640 639 440 0
42 241 240 41 440 639 638 439 0
41 240 239 40 439 638 637 438 0
40 239 238 39 438 637 636 437 0
39 238 237 38 437 636 635 436 0
38 237 236 37 436 635 634 435 0
37 236 235 36 435 634 633 434 0
36 235 234 35 434 633 632 433 0
35 234 233 34 433 632 631 432 0
34 233 232 33 432 631 630 431 0
33 232 231 32 431 630 629 430 0
32 231 230 31 430 629 628 429 0
31 230 229 30 429 628 627 428 0
30 229 228 29 428 627 626 427 0
29 228 227 28 427 626 625 426 0
28 227 226 27 426 625 624 425 0
27 226 225 26 425 624 623 424 0
26 225 224 25 424 623 622 423 0
25 224 223 24 423 622 621 422 0
24 223 222 23 422 621 620 421 0
23 222 221 22 421 620 619 420 0
22 221 220 21 420 619 618 419 0
21 220 219 20 419 618 617 418 0
20 219 218 19 418 617 616 417 0
19 218 217 18 417 616 615 416 0
18 217 216 17 416 615 614 415 0
17 216 215 16 415 614 613 414 0
16 215 214 15 414 613 612 413 0
15 214 213 14 413 612 611 412 0
14 213 212 13 412 611 610 411 0
13 212 211 12 411 610 609 410 0
12 211 210 11 410 609 608 409 0
11 210 209 10 409 608 607 408 0
10 209 208 9 408 607 606 407 0
9 208 4 2 407 606 8 6 0

Quadrilaterals
802
2 4 8 6 0
3 1 5 7 1
2 9 208 4 2
9 10 209 208 2
10 11 210 209 2
11 12 211 210 2
12 13 212 211 2
13 14 213 212 2
14 15 214 213 2
15 16 215 214 2
16 17 216 215 2
17 18 217 216 2
18 19 218 217 2
19 20 219 218 2
20 21 220 219 2
21 22 221 220 2
22 23 222 221 2
23 24 223 222 2
24 25 224 223 2
25 26 225 224 2
26 27 226 225 2
27 28 227 226 2
28 29 228 227 2
29 30 229 228 2
30 31 230 229 2
31 32 231 230 2
32 33 232 231 2
33 34 233 232 2
34 35 234 233 2
35 36 235 234 2
36 37 236 235 2
37 38 237 236 2
38 39 238 237 2
39 40 239 238 2
40 41 240 239 2
41 42 241 240 2
42 43 242 241 2
43 44 243 242 2
44 45 244 243 2
45 46 245 244 2
46 47 246 245 2
47 48 247 246 2
48 49 248 247 2
49 50 249 248 2
50 51 250 249 2
51 52 251 250 2
52 53 252 251 2
53 54 253 252 2
54 55 254 253 2
55 56 255 254 2
56 57 256 255 2
57 58 257 256 2
58 59 258 257 2
59 60 259 258 2
60 61 260 259 2
61 62 261 260 2
62 63 262 261 2
63 64 263 262 2
64 65 264 263 2
65 66 265 264 2
66 67 266 265 2
67 68 267 266 2
68 69 268 267 2
69 70 269 268 2
70 71 270 269 2
71 72 271 270 2
72 73 272 271 2
73 74 273 272 2
74 75 274 273 2
75 76 275 274 2
76 77 276 275 2
77 78 277 276 2
78 79 278 277 2
79 80 279 278 2
80 81 280 279 2
81 82 281 280 2
82 83 282 281 2
83 84 283 282 2
84 85 284 283 2
85 86 285 284 2
86 87 286 285 2
87 88 287 286 2
88 89 288 287 2
89 90 289 288 2
90 91 290 289 2
91 92 291 290 2
92 93 292 291 2
93 94 293 292 2
94 95 294 293 2
95 96 295 294 2
96 97 296 295 2
97 98 297 296 2
98 99 298 297 2
99 100 299 298 2
100 101 300 299 2
101 102 301 300 2
102 103 302 301 2
103 104 303 302 2
104 105 304 303 2
105 106 305 304 2
106 107 306 305 2
107 108 307 306 2
108 109 308 307 2
109 110 309 308 2
110 111 310 309 2
111 112 311 310 2
112 113 312 311 2
113 114 313 312 2
114 115 314 313 2
115 116 315 314 2
116 117 316 315 2
117 118 317 316 2
118 119 318 317 2
119 120 319 318 2
120 121 320 319 2
121 122 321 320 2
122 123 322 321 2
123 124 323 322 2
124 125 324 323 2
125 126 325 324 2
126 127 326 325 2
127 128 327 326 2
128 129 328 327 2
129 130 329 328 2
130 131 330 329 2
131 132 331 330 2
132 133 332 331 2
133 134 333 332 2
134 135 334 333 2
135 136 335 334 2
136 137 336 335 2
137 138 337 336 2
138 139 338 337 2
139 140 339 338 2
140 141 340 339 2
141 142 341 340 2
142 143 342 341 2
143 144 343 342 2
144 145 344 343 2
145 146 345 344 2
146 147 346 345 2
147 148 347 346 2
148 149 348 347 2
149 150 349 348 2
150 151 350 349 2
151 152 351 350 2
152 153 352 351 2
153 154 353 352 2
154 155 354 353 2
155 156 355 354 2
156 157 356 355 2
157 158 357 356 2
158 159 358 357 2
159 160 359 358 2
160 161 360 359 2
161 162 361 360 2
162 163 362 361 2
163 164 363 362 2
164 165 364 363 2
165 166 365 364 2
166 167 366 365 2
167 168 367 366 2
168 169 368 367 2
169 170 369 368 2
170 171 370 369 2
171 172 371 370 2
172 173 372 371 2
173 174 373 372 2
174 175 374 373 2
175 176 375 374 2
176 177 376 375 2
177 178 377 376 2
178 179 378 377 2
179 180 379 378 2
180 181 380 379 2
181 182 381 380 2
182 183 382 381 2
183 184 383 382 2
184 185 384 383 2
185 186 385 384 2
186 187 386 385 2
187 188 387 386 2
188 189 388 387 2
189 190 389 388 2
190 191 390 389 2
191 192 391 390 2
192 193 392 391 2
193 194 393 392 2
194 195 394 393 2
195 196 395 394 2
196 197 396 395 2
197 198 397 396 2
198 199 398 397 2
199 200 399 398 2
200 201 400 399 2
201 202 401 400 2
202 203 402 401 2
203 204 403 402 2
204 205 404 403 2
205 206 405 404 2
206 207 406 405 2
207 1 3 406 2
5 605 804 7 2
605 604 803 804 2
604 603 802 803 2
603 602 801 802 2
602 601 800 801 2
601 600 799 800 2
600 599 798 799 2
599 598 797 798 2
598 597 796 797 2
597 596 795 796 2
596 595 794 795 2
595 594 793 794 2
594 593 792 793 2
593 592 791 792 2
592 591 790 791 2
591 590 789 790 2
590 589 788 789 2
589 588 787 788 2
588 587 786 787 2
587 586 785 786 2
586 585 784 785 2
585 584 783 784 2
584 583 782 783 2
583 582 781 782 2
582 581 780 781 2
581 580 779 780 2
580 579 778 779 2
579 578 777 778 2
578 577 776 777 2
577 576 775 776 2
576 575 774 775 2
575 574 773 774 2
574 573 772 773 2
573 572 771 772 2
572 571 770 771 2
571 570 769 770 2
570 569 768 769 2
569 568 767 768 2
568 567 766 767 2
567 566 765 766 2
566 565 764 765 2
565 564 763 764 2
564 563 762 763 2
563 562 761 762 2
562 561 760 761 2
561 560 759 760 2
560 559 758 759 2
559 558 757 758 2
558 557 756 757 2
557 556 755 756 2
556 555 754 755 2
555 554 753 754 2
554 553 752 753 2
553 552 751 752 2
552 551 750 751 2
551 550 749 750 2
550 549 748 749 2
549 548 747 748 2
548 547 746 747 2
547 546 745 746 2
546 545 744 745 2
545 544 743 744 2
544 543 742 743 2
543 542 741 742 2
542 541 740 741 2
541 540 739 740 2
540 539 738 739 2
539 538 737 738 2
538 537 736 737 2
537 536 735 736 2
536 535 734 735 2
535 534 733 734 2
534 533 732 733 2
533 532 731 732 2
532 531 730 731 2
531 530 729 730 2
530 529 728 729 2
529 528 727 728 2
528 527 726 727 2
527 526 725 726 2
526 525 724 725 2
525 524 723 724 2
524 523 722 723 2
523 522 721 722 2
522 521 720 721 2
521 520 719 720 2
520 519 718 719 2
519 518 717 718 2
518 517 716 717 2
517 516 715 716 2
516 515 714 715 2
515 514 713 714 2
514 513 712 713 2
513 512 711 712 2
512 511 710 711 2
511 510 709 710 2
510 509 708 709 2
509 508 707 708 2
508 507 706 707 2
507 506 705 706 2
506 505 704 705 2
505 504 703 704 2
504 503 702 703 2
503 502 701 702 2
502 501 700 701 2
501 500 699 700 2
500 499 698 699 2
499 498 697 698 2
498 497 696 697 2
497 496 695 696 2
496 495 694 695 2
495 494 693 694 2
494 493 692 693 2
493 492 691 692 2
492 491 690 691 2
491 490 689 690 2
490 489 688 689 2
489 488 687 688 2
488 487 686 687 2
487 486 685 686 2
486 485 684 685 2
485 484 683 684 2
484 483 682 683 2
483 482 681 682 2
482 481 680 681 2
481 480 679 680 2
480 479 678 679 2
479 478 677 678 2
478 477 676 677 2
477 476 675 676 2
476 475 674 675 2
475 474 673 674 2
474 473 672 673 2
473 472 671 672 2
472 471 670 671 2
471 470 669 670 2
470 469 668 669 2
469 468 667 668 2
468 467 666 667 2
467 466 665 666 2
466 465 664 665 2
465 464 663 664 2
464 463 662 663 2
463 462 661 662 2
462 461 660 661 2
461 460 659 660 2
460 459 658 659 2
459 458 657 658 2
458 457 656 657 2
457 456 655 656 2
456 455 654 655 2
455 454 653 654 2
454 453 652 653 2
453 452 651 652 2
452 451 650 651 2
451 450 649 650 2
450 449 648 649 2
449 448 647 648 2
448 447 646 647 2
447 446 645 646 2
446 445 644 645 2
445 444 643 644 2
444 443 642 643 2
443 442 641 642 2
442 441 640 641 2
441 440 639 640 2
440 439 638 639 2
439 438 637 638 2
438 437 636 637 2
437 436 635 636 2
436 435 634 635 2
435 434 633 634 2
434 433 632 633 2
433 432 631 632 2
432 431 630 631 2
431 430 629 630 2
430 429 628 629 2
429 428 627 628 2
428 427 626 627 2
427 426 625 626 2
426 425 624 625 2
425 424 623 624 2
424 423 622 623 2
423 422 621 622 2
422 421 620 621 2
421 420 619 620 2
420 419 618 619 2
419 418 617 618 2
418 417 616 617 2
417 416 615 616 2
416 415 614 615 2
415 414 613 614 2
414 413 612 613 2
413 412 611 612 2
412 411 610 611 2
411 410 609 610 2
410 409 608 609 2
409 408 607 608 2
408 407 606 607 2
407 6 8 606 2
2 6 407 9 3
9 407 408 10 3
10 408 409 11 3
11 409 410 12 3
12 410 411 13 3
13 411 412 14 3
14 412 413 15 3
15 413 414 16 3
16 414 415 17 3
17 415 416 18 3
18 416 417 19 3
19 417 418 20 3
20 418 419 21 3
21 419 420 22 3
22 420 421 23 3
23 421 422 24 3
24 422 423 25 3
25 423 424 26 3
26 424 425 27 3
27 425 426 28 3
28 426 427 29 3
29 427 428 30 3
30 428 429 31 3
31 429 430 32 3
32 430 431 33 3
33 431 432 34 3
34 432 433 35 3
35 433 434 36 3
36 434 435 37 3
37 435 436 38 3
38 436 437 39 3
39 437 438 40 3
40 438 439 41 3
41 439 440 42 3
42 440 441 43 3
43 441 442 44 3
44 442 443 45 3
45 443 444 46 3
46 444 445 47 3
47 445 446 48 3
48 446 447 49 3
49 447 448 50 3
50 448 449 51 3
51 449 450 52 3
52 450 451 53 3
53 451 452 54 3
54 452 453 55 3
55 453 454 56 3
56 454 455 57 3
57 455 456 58 3
58 456 457 59 3
59 457 458 60 3
60 458 459 61 3
61 459 460 62 3
62 460 461 63 3
63 461 462 64 3
64 462 463 65 3
65 463 464 66 3
66 464 465 67 3
67 465 466 68 3
68 466 467 69 3
69 467 468 70 3
70 468 469 71 3
71 469 470 72 3
72 470 471 73 3
73 471 472 74 3
74 472 473 75 3
75 473 474 76 3
76 474 475 77 3
77 475 476 78 3
78 476 477 79 3
79 477 478 80 3
80 478 479 81 3
81 479 480 82 3
82 480 481 83 3
83 481 482 84 3
84 482 483 85 3
85 483 484 86 3
86 484 485 87 3
87 485 486 88 3
88 486 487 89 3
89 487 488 90 3
90 488 489 91 3
91 489 490 92 3
92 490 491 93 3
93 491 492 94 3
94 492 493 95 3
95 493 494 96 3
96 494 495 97 3
97 495 496 98 3
98 496 497 99 3
99 497 498 100 3
100 498 499 101 3
101 499 500 102 3
102 500 501 103 3
103 501 502 104 3
104 502 503 105 3
105 503 504 106 3
106 504 505 107 3
107 505 506 108 3
108 506 507 109 3
109 507 508 110 3
110 508 509 111 3
111 509 510 112 3
112 510 511 113 3
113 511 512 114 3
114 512 513 115 3
115 513 514 116 3
116 514 515 117 3
117 515 516 118 3
118 516 517 119 3
119 517 518 120 3
120 518 519 121 3
121 519 520 122 3
122 520 521 123 3
123 521 522 124 3
124 522 523 125 3
125 523 524 126 3
126 524 525 127 3
127 525 526 128 3
128 526 527 129 3
129 527 528 130 3
130 528 529 131 3
131 529 530 132 3
132 530 531 133 3
133 531 532 134 3
134 532 533 135 3
135 533 534 136 3
136 534 535 137 3
137 535 536 138 3
138 536 537 139 3
139 537 538 140 3
140 538 539 141 3
141 539 540 142 3
142 540 541 143 3
143 541 542 144 3
144 542 543 145 3
145 543 544 146 3
146 544 545 147 3
147 545 546 148 3
148 546 547 149 3
149 547 548 150 3
150 548 549 151 3
151 549 550 152 3
152 550 551 153 3
153 551 552 154 3
154 552 553 155 3
155 553 554 156 3
156 554 555 157 3
157 555 556 158 3
158 556 557 159 3
159 557 558 160 3
160 558 559 161 3
161 559 560 162 3
162 560 561 163 3
163 561 562 164 3
164 562 563 165 3
165 563 564 166 3
166 564 565 167 3
167 565 566 168 3
168 566 567 169 3
169 567 568 170 3
170 568 569 171 3
171 569 570 172 3
172 570 571 173 3
173 571 572 174 3
174 572 573 175 3
175 573 574 176 3
176 574 575 177 3
177 575 576 178 3
178 576 577 179 3
179 577 578 180 3
180 578 579 181 3
181 579 580 182 3
182 580 581 183 3
183 581 582 184 3
184 582 583 185 3
185 583 584 186 3
186 584 585 187 3
187 585 586 188 3
188 586 587 189 3
189 587 588 190 3
190 588 589 191 3
191 589 590 192 3
192 590 591 193 3
193 591 592 194 3
194 592 593 195 3
195 593 594 196 3
196 594 595 197 3
197 595 596 198 3
198 596 597 199 3
199 597 598 200 3
200 598 599 201 3
201 599 600 202 3
202 600 601 203 3
203 601 602 204 3
204 602 603 205 3
205 603 604 206 3
206 604 605 207 3
207 605 5 1 3
8 4 208 606 3
606 208 209 607 3
607 209 210 608 3
608 210 211 609 3
609 211 212 610 3
610 212 213 611 3
611 213 214 612 3
612 214 215 613 3
613 215 216 614 3
614 216 217 615 3
615 217 218 616 3
616 218 219 617 3
617 219 220 618 3
618 220 221 619 3
619 221 222 620 3
620 222 223 621 3
621 223 224 622 3
622 224 225 623 3
623 225 226 624 3
624 226 227 625 3
625 227 228 626 3
626 228 229 627 3
627 229 230 628 3
628 230 231 629 3
629 231 232 630 3
630 232 233 631 3
631 233 234 632 3
632 234 235 633 3
633 235 236 634 3
634 236 237 635 3
635 237 238 636 3
636 238 239 637 3
637 239 240 638 3
638 240 241 639 3
639 241 242 640 3
640 242 243 641 3
641 243 244 642 3
642 244 245 643 3
643 245 246 644 3
644 246 247 645 3
645 247 248 646 3
646 248 249 647 3
647 249 250 648 3
648 250 251 649 3
649 251 252 650 3
650 252 253 651 3
651 253 254 652 3
652 254 255 653 3
653 255 256 654 3
654 256 257 655 3
655 257 258 656 3
656 258 259 657 3
657 259 260 658 3
658 260 261 659 3
659 261 262 660 3
660 262 263 661 3
661 263 264 662 3
662 264 265 663 3
663 265 266 664 3
664 266 267 665 3
665 267 268 666 3
666 268 269 667 3
667 269 270 668 3
668 270 271 669 3
669 271 272 670 3
670 272 273 671 3
671 273 274 672 3
672 274 275 673 3
673 275 276 674 3
674 276 277 675 3
675 277 278 676 3
676 278 279 677 3
677 279 280 678 3
678 280 281 679 3
679 281 282 680 3
680 282 283 681 3
681 283 284 682 3
682 284 285 683 3
683 285 286 684 3
684 286 287 685 3
685 287 288 686 3
686 288 289 687 3
687 289 290 688 3
688 290 291 689 3
689 291 292 690 3
690 292 293 691 3
691 293 294 692 3
692 294 295 693 3
693 295 296 694 3
694 296 297 695 3
695 297 298 696 3
696 298 299 697 3
697 299 300 698 3
698 300 301 699 3
699 301 302 700 3
700 302 303 701 3
701 303 304 702 3
702 304 305 703 3
703 305 306 704 3
704 306 307 705 3
705 307 308 706 3
706 308 309 707 3
707 309 310 708 3
708 310 311 709 3
709 311 312 710 3
710 312 313 711 3
711 313 314 712 3
712 314 315 713 3
713 315 316 714 3
714 316 317 715 3
715 317 318 716 3
716 318 319 717 3
717 319 320 718 3
718 320 321 719 3
719 321 322 720 3
720 322 323 721 3
721 323 324 722 3
722 324 325 723 3
723 325 326 724 3
724 326 327 725 3
725 327 328 726 3
726 328 329 727 3
727 329 330 728 3
728 330 331 729 3
729 331 332 730 3
730 332 333 731 3
731 333 334 732 3
732 334 335 733 3
733 335 336 734 3
734 336 337 735 3
735 337 338 736 3
736 338 339 737 3
737 339 340 738 3
738 340 341 739 3
739 341 342 740 3
740 342 343 741 3
741 343 344 742 3
742 344 345 743 3
743 345 346 744 3
744 346 347 745 3
745 347 348 746 3
746 348 349 747 3
747 349 350 748 3
748 350 351 749 3
749 351 352 750 3
750 352 353 751 3
751 353 354 752 3
752 354 355 753 3
753 355 356 754 3
754 356 357 755 3
755 357 358 756 3
756 358 359 757 3
757 359 360 758 3
758 360 361 759 3
759 361 362 760 3
760 362 363 761 3
761 363 364 762 3
762 364 365 763 3
763 365 366 764 3
764 366 367 765 3
765 367 368 766 3
766 368 369 767 3
767 369 370 768 3
768 370 371 769 3
769 371 372 770 3
770 372 373 771 3
771 373 374 772 3
772 374 375 773 3
773 375 376 774 3
774 376 377 775 3
775 377 378 776 3
776 378 379 777 3
777 379 380 778 3
778 380 381 779 3
779 381 382 780 3
780 382 383 781 3
781 383 384 782 3
782 384 385 783 3
783 385 386 784 3
784 386 387 785 3
785 387 388 786 3
786 388 389 787 3
787 389 390 788 3
788 390 391 789 3
789 391 392 790 3
790 392 393 791 3
791 393 394 792 3
792 394 395 793 3
793 395 396 794 3
794 396 397 795 3
795 397 398 796 3
796 398 399 797 3
797 399 400 798 3
798 400 401 799 3
799 401 402 800 3
800 402 403 801 3
801 403 404 802 3
802 404 405 803 3
803 405 406 804 3
804 406 3 7 3

Edges
808
1 3 0
2 4 0
5 7 0
6 8 0
2 6 0
1 5 0
4 8 0
3 7 0
2 9 0
9 10 0
10 11 0
11 12 0
12 13 0
13 14 0
14 15 0
15 16 0
16 17 0
17 18 0
18 19 0
19 20 0
20 21 0
21 22 0
22 23 0
23 24 0
24 25 0
25 26 0
26 27 0
27 28 0
28 29 0
29 30 0
30 31 0
31 32 0
32 33 0
33 34 0
34 35 0
35 36 0
36 37 0
37 38 0
38 39 0
39 40 0
40 41 0
41 42 0
42 43 0
43 44 0
44 45 0
45 46 0
46 47 0
47 48 0
48 49 0
49 50 0
50 51 0
51 52 0
52 53 0
53 54 0
54 55 0
55 56 0
56 57 0
57 58 0
58 59 0
59 60 0
60 61 0
61 62 0
62 63 0
63 64 0
64 65 0
65 66 0
66 67 0
67 68 0
68 69 0
69 70 0
70 71 0
71 72 0
72 73 0
73 74 0
74 75 0
75 76 0
76 77 0
77 78 0
78 79 0
79 80 0
80 81 0
81 82 0
82 83 0
83 84 0
84 85 0
85 86 0
86 87 0
87 88 0
88 89 0
89 90 0
90 91 0
91 92 0
92 93 0
93 94 0
94 95 0
95 96 0
96 97 0
97 98 0
98 99 0
99 100 0
100 101 0
101 102 0
102 103 0
103 104 0
104 105 0
105 106 0
106 107 0
107 108 0
108 109 0
109 110 0
110 111 0
111 112 0
112 113 0
113 114 0
114 115 0
115 116 0
116 117 0
117 118 0
118 119 0
119 120 0
120 121 0
121 122 0
122 123 0
123 124 0
124 125 0
125 126 0
126 127 0
127 128 0
128 129 0
129 130 0
130 131 0
131 132 0
132 133 0
133 134 0
134 135 0
135 136 0
136 137 0
137 138 0
138 139 0
139 140 0
140 141 0
141 142 0
142 143 0
143 144 0
144 145 0
145 146 0
146 147 0
147 148 0
148 149 0
149 150 0
150 151 0
151 152 0
152 153 0
153 154 0
154 155 0
155 156 0
156 157 0
157 158 0
158 159 0
159 160 0
160 161 0
161 162 0
162 163 0
163 164 0
164 165 0
165 166 0
166 167 0
167 168 0
168 169 0
169 170 0
170 171 0
171 172 0
172 173 0
173 174 0
174 175 0
175 176 0
176 177 0
177 178 0
178 179 0
179 180 0
180 181 0
181 182 0
182 183 0
183 184 0
184 185 0
185 186 0
186 187 0
187 188 0
188 189 0
189 190 0
190 191 0
191 192 0
192 193 0
193 194 0
194 195 0
195 196 0
196 197 0
197 198 0
198 199 0
199 200 0
200 201 0
201 202 0
202 203 0
203 204 0
204 205 0
205 206 0
206 207 0
207 1 0
4 208 0
208 209 0
209 210 0
210 211 0
211 212 0
212 213 0
213 214 0
214 215 0
215 216 0
216 217 0
217 218 0
218 219 0
219 220 0
220 221 0
221 222 0
222 223 0
223 224 0
224 225 0
225 226 0
226 227 0
227 228 0
228 229 0
229 230 0
230 231 0
231 232 0
232 233 0
233 234 0
234 235 0
235 236 0
236 237 0
237 238 0
238 239 0
239 240 0
240 241 0
241 242 0
242 243 0
243 244 0
244 245 0
245 246 0
246 247 0
247 248 0
248 249 0
249 250 0
250 251 0
251 252 0
252 253 0
253 254 0
254 255 0
255 256 0
256 257 0
257 258 0
258 259 0
259 260 0
260 261 0
261 262 0
262 263 0
263 264 0
264 265 0
265 266 0
266 267 0
267 268 0
268 269 0
269 270 0
270 271 0
271 272 0
272 273 0
273 274 0
274 275 0
275 276 0
276 277 0
277 278 0
278 279 0
279 280 0
280 281 0
281 282 0
282 283 0
283 284 0
284 285 0
285 286 0
286 287 0
287 288 0
288 289 0
289 290 0
290 291 0
291 292 0
292 293 0
293 294 0
294 295 0
295 296 0
296 297 0
297 298 0
298 299 0
299 300 0
300 301 0
301 302 0
302 303 0
303 304 0
304 305 0
305 306 0
306 307 0
307 308 0
308 309 0
309 310 0
310 311 0
311 312 0
312 313 0
313 314 0
314 315 0
315 316 0
316 317 0
317 318 0
318 319 0
319 320 0
320 321 0
321 322 0
322 323 0
323 324 0
324 325 0
325 326 0
326 327 0
327 328 0
328 329 0
329 330 0
330 331 0
331 332 0
332 333 0
333 334 0
334 335 0
335 336 0
336 337 0
337 338 0
338 339 0
339 340 0
340 341 0
341 342 0
342 343 0
343 344 0
344 345 0
345 346 0
346 347 0
347 348 0
348 349 0
349 350 0
350 351 0
351 352 0
352 353 0
353 354 0
354 355 0
355 356 0
356 357 0
357 358 0
358 359 0
359 360 0
360 361 0
361 362 0
362 363 0
363 364 0
364 365 0
365 366 0
366 367 0
367 368 0
368 369 0
369 370 0
370 371 0
371 372 0
372 373 0
373 374 0
374 375 0
375 376 0
376 377 0
377 378 0
378 379 0
379 380 0
380 381 0
381 382 0
382 383 0
383 384 0
384 385 0
385 386 0
386 387 0
387 388 0
388 389 0
389 390 0
390 391 0
391 392 0
392 393 0
393 394 0
394 395 0
395 396 0
396 397 0
397 398 0
398 399 0
399 400 0
400 401 0
401 402 0
402 403 0
403 404 0
404 405 0
405 406 0
406 3 0
6 407 0
407 408 0
408 409 0
409 410 0
410 411 0
411 412 0
412 413 0
413 414 0
414 415 0
415 416 0
416 417 0
417 418 0
418 419 0
419 420 0
420 421 0
421 422 0
422 423 0
423 424 0
424 425 0
425 426 0
426 427 0
427 428 0
428 429 0
429 430 0
430 431 0
431 432 0
432 433 0
433 434 0
434 435 0
435 436 0
436 437 0
437 438 0
438 439 0
439 440 0
440 441 0
441 442 0
442 443 0
443 444 0
444 445 0
445 446 0
446 447 0
447 448 0
448 449 0
449 450 0
450 451 0
451 452 0
452 453 0
453 454 0
454 455 0
455 456 0
456 457 0
457 458 0
458 459 0
459 460 0
460 461 0
461 462 0
462 463 0
463 464 0
464 465 0
465 466 0
466 467 0
467 468 0
468 469 0
469 470 0
470 471 0
471 472 0
472 473 0
473 474 0
474 475 0
475 476 0
476 477 0
477 478 0
478 479 0
479 480 0
480 481 0
481 482 0
482 483 0
483 484 0
484 485 0
485 486 0
486 487 0
487 488 0
488 489 0
489 490 0
490 491 0
491 492 0
492 493 0
493 494 0
494 495 0
495 496 0
496 497 0
497 498 0
498 499 0
499 500 0
500 501 0
501 502 0
502 503 0
503 504 0
504 505 0
505 506 0
506 507 0
507 508 0
508 509 0
509 510 0
510 511 0
511 512 0
512 513 0
513 514 0
514 515 0
515 516 0
516 517 0
517 518 0
518 519 0
519 520 0
520 521 0
521 522 0
522 523 0
523 524 0
524 525 0
525 526 0
526 527 0
527 528 0
528 529 0
529 530 0
530 531 0
531 532 0
532 533 0
533 534 0
534 535 0
535 536 0
536 537 0
537 538 0
538 539 0
539 540 0
540 541 0
541 542 0
542 543 0
543 544 0
544 545 0
545 546 0
546 547 0
547 548 0
548 549 0
549 550 0
550 551 0
551 552 0
552 553 0
553 554 0
554 555 0
555 556 0
556 557 0
557 558 0
558 559 0
559 560 0
560 561 0
561 562 0
562 563 0
563 564 0
564 565 0
565 566 0
566 567 0
567 568 0
568 569 0
569 570 0
570 571 0
571 572 0
572 573 0
573 574 0
574 575 0
575 576 0
576 577 0
577 578 0
578 579 0
579 580 0
580 581 0
581 582 0
582 583 0
583 584 0
584 585 0
585 586 0
586 587 0
587 588 0
588 589 0
589 590 0
590 591 0
591 592 0
592 593 0
593 594 0
594 595 0
595 596 0
596 597 0
597 598 0
598 599 0
599 600 0
600 601 0
601 602 0
602 603 0
603 604 0
604 605 0
605 5 0
8 606 0
606 607 0
607 608 0
608 609 0
609 610 0
610 611 0
611 612 0
612 613 0
613 614 0
614 615 0
615 616 0
616 617 0
617 618 0
618 619 0
619 620 0
620 621 0
621 622 0
622 623 0
623 624 0
624 625 0
625 626 0
626 627 0
627 628 0
628 629 0
629 630 0
630 631 0
631 632 0
632 633 0
633 634 0
634 635 0
635 636 0
636 637 0
637 638 0
638 639 0
639 640 0
640 641 0
641 642 0
642 643 0
643 644 0
644 645 0
645 646 0
646 647 0
647 648 0
648 649 0
649 650 0
650 651 0
651 652 0
652 653 0
653 654 0
654 655 0
655 656 0
656 657 0
657 658 0
658 659 0
659 660 0
660 661 0
661 662 0
662 663 0
663 664 0
664 665 0
665 666 0
666 667 0
667 668 0
668 669 0
669 670 0
670 671 0
671 672 0
672 673 0
673 674 0
674 675 0
675 676 0
676 677 0
677 678 0
678 679 0
679 680 0
680 681 0
681 682 0
682 683 0
683 684 0
684 685 0
685 686 0
686 687 0
687 688 0
688 689 0
689 690 0
690 691 0
691 692 0
692 693 0
693 694 0
694 695 0
695 696 0
696 697 0
697 698 0
698 699 0
699 700 0
700 701 0
701 702 0
702 703 0
703 704 0
704 705 0
705 706 0
706 707 0
707 708 0
708 709 0
709 710 0
710 711 0
711 712 0
712 713 0
713 714 0
714 715 0
715 716 0
716 717 0
717 718 0
718 719 0
719 720 0
720 721 0
721 722 0
722 723 0
723 724 0
724 725 0
725 726 0
726 727 0
727 728 0
728 729 0
729 730 0
730 731 0
731 732 0
732 733 0
733 734 0
734 735 0
735 736 0
736 737 0
737 738 0
738 739 0
739 740 0
740 741 0
741 742 0
742 743 0
743 744 0
744 745 0
745 746 0
746 747 0
747 748 0
748 749 0
749 750 0
750 751 0
751 752 0
752 753 0
753 754 0
754 755 0
755 756 0
756 757 0
757 758 0
758 759 0
759 760 0
760 761 0
761 762 0
762 763 0
763 764 0
764 765 0
765 766 0
766 767 0
767 768 0
768 769 0
769 770 0
770 771 0
771 772 0
772 773 0
773 774 0
774 775 0
775 776 0
776 777 0
777 778 0
778 779 0
779 780 0
780 781 0
781 782 0
782 783 0
783 784 0
784 785 0
785 786 0
786 787 0
787 788 0
788 789 0
789 790 0
790 791 0
791 792 0
792 793 0
793 794 0
794 795 0
795 796 0
796 797 0
797 798 0
798 799 0
799 800 0
800 801 0
801 802 0
802 803 0
803 804 0
804 7 0

End
